<mxfile host="app.diagrams.net" modified="2022-03-09T20:29:30.814Z" agent="5.0 (Windows NT 10.0; Win64; x64) AppleWebKit/537.36 (KHTML, like Gecko) Chrome/99.0.4844.51 Safari/537.36 Edg/99.0.1150.30" etag="N_GF3rjFKlCTgC_Q0BCV" version="17.0.0" type="github">
  <diagram id="3hGfdoVpEfOINL4fJWES" name="Page-1">
    <mxGraphModel dx="1887" dy="995" grid="1" gridSize="10" guides="1" tooltips="1" connect="1" arrows="1" fold="1" page="1" pageScale="1" pageWidth="1169" pageHeight="827" math="0" shadow="0">
      <root>
        <mxCell id="0" />
        <mxCell id="1" parent="0" />
        <mxCell id="V4bar3wsAy12n1TZm8ha-1" value="Cliente" style="rounded=0;whiteSpace=wrap;html=1;strokeWidth=1;perimeterSpacing=0;" parent="1" vertex="1">
          <mxGeometry x="320" y="240" width="120" height="40" as="geometry" />
        </mxCell>
        <mxCell id="V4bar3wsAy12n1TZm8ha-2" value="" style="endArrow=none;html=1;rounded=0;fillColor=#000000;exitX=0.5;exitY=1;exitDx=0;exitDy=0;entryX=0.087;entryY=-0.001;entryDx=0;entryDy=0;entryPerimeter=0;" parent="1" source="V4bar3wsAy12n1TZm8ha-3" target="V4bar3wsAy12n1TZm8ha-1" edge="1">
          <mxGeometry width="50" height="50" relative="1" as="geometry">
            <mxPoint x="331.0799999999999" y="221" as="sourcePoint" />
            <mxPoint x="331" y="230" as="targetPoint" />
          </mxGeometry>
        </mxCell>
        <mxCell id="V4bar3wsAy12n1TZm8ha-3" value="" style="ellipse;whiteSpace=wrap;html=1;aspect=fixed;strokeWidth=1;fillColor=#000000;" parent="1" vertex="1">
          <mxGeometry x="325" y="200" width="10" height="10" as="geometry" />
        </mxCell>
        <mxCell id="V4bar3wsAy12n1TZm8ha-4" value="Codice" style="text;html=1;align=center;verticalAlign=middle;resizable=0;points=[];autosize=1;strokeColor=none;fillColor=none;" parent="1" vertex="1">
          <mxGeometry x="306" y="181" width="50" height="20" as="geometry" />
        </mxCell>
        <mxCell id="V4bar3wsAy12n1TZm8ha-6" value="" style="ellipse;whiteSpace=wrap;html=1;aspect=fixed;strokeWidth=1;fillColor=none;" parent="1" vertex="1">
          <mxGeometry x="424" y="311" width="10" height="10" as="geometry" />
        </mxCell>
        <mxCell id="V4bar3wsAy12n1TZm8ha-9" value="Indirizzo" style="ellipse;whiteSpace=wrap;html=1;" parent="1" vertex="1">
          <mxGeometry x="200" y="290" width="80" height="40" as="geometry" />
        </mxCell>
        <mxCell id="V4bar3wsAy12n1TZm8ha-12" value="" style="endArrow=none;html=1;rounded=0;entryX=0;entryY=0.5;entryDx=0;entryDy=0;exitX=1;exitY=0.5;exitDx=0;exitDy=0;" parent="1" source="V4bar3wsAy12n1TZm8ha-9" target="V4bar3wsAy12n1TZm8ha-1" edge="1">
          <mxGeometry width="50" height="50" relative="1" as="geometry">
            <mxPoint x="241" y="291" as="sourcePoint" />
            <mxPoint x="291" y="241" as="targetPoint" />
          </mxGeometry>
        </mxCell>
        <mxCell id="V4bar3wsAy12n1TZm8ha-24" value="" style="ellipse;whiteSpace=wrap;html=1;aspect=fixed;strokeWidth=1;fillColor=none;" parent="1" vertex="1">
          <mxGeometry x="170" y="280" width="10" height="10" as="geometry" />
        </mxCell>
        <mxCell id="V4bar3wsAy12n1TZm8ha-25" value="" style="ellipse;whiteSpace=wrap;html=1;aspect=fixed;strokeWidth=1;fillColor=none;" parent="1" vertex="1">
          <mxGeometry x="170" y="300" width="10" height="10" as="geometry" />
        </mxCell>
        <mxCell id="V4bar3wsAy12n1TZm8ha-26" value="" style="ellipse;whiteSpace=wrap;html=1;aspect=fixed;strokeWidth=1;fillColor=none;" parent="1" vertex="1">
          <mxGeometry x="170" y="340" width="10" height="10" as="geometry" />
        </mxCell>
        <mxCell id="V4bar3wsAy12n1TZm8ha-27" value="" style="endArrow=none;html=1;rounded=0;entryX=1;entryY=0.5;entryDx=0;entryDy=0;exitX=0;exitY=0.5;exitDx=0;exitDy=0;" parent="1" source="V4bar3wsAy12n1TZm8ha-9" target="V4bar3wsAy12n1TZm8ha-24" edge="1">
          <mxGeometry width="50" height="50" relative="1" as="geometry">
            <mxPoint x="200" y="300" as="sourcePoint" />
            <mxPoint x="220.999999999998" y="287" as="targetPoint" />
          </mxGeometry>
        </mxCell>
        <mxCell id="V4bar3wsAy12n1TZm8ha-28" value="" style="endArrow=none;html=1;rounded=0;entryX=1;entryY=0.5;entryDx=0;entryDy=0;exitX=0;exitY=0.5;exitDx=0;exitDy=0;" parent="1" source="V4bar3wsAy12n1TZm8ha-9" target="V4bar3wsAy12n1TZm8ha-25" edge="1">
          <mxGeometry width="50" height="50" relative="1" as="geometry">
            <mxPoint x="200" y="300" as="sourcePoint" />
            <mxPoint x="220.999999999998" y="297" as="targetPoint" />
          </mxGeometry>
        </mxCell>
        <mxCell id="V4bar3wsAy12n1TZm8ha-29" value="" style="endArrow=none;html=1;rounded=0;entryX=1;entryY=0.5;entryDx=0;entryDy=0;exitX=0;exitY=0.5;exitDx=0;exitDy=0;" parent="1" source="V4bar3wsAy12n1TZm8ha-9" target="V4bar3wsAy12n1TZm8ha-26" edge="1">
          <mxGeometry width="50" height="50" relative="1" as="geometry">
            <mxPoint x="190" y="310" as="sourcePoint" />
            <mxPoint x="190.99999999999977" y="337" as="targetPoint" />
          </mxGeometry>
        </mxCell>
        <mxCell id="V4bar3wsAy12n1TZm8ha-30" value="Via" style="text;html=1;align=center;verticalAlign=middle;resizable=0;points=[];autosize=1;strokeColor=none;fillColor=none;" parent="1" vertex="1">
          <mxGeometry x="140" y="275" width="30" height="20" as="geometry" />
        </mxCell>
        <mxCell id="V4bar3wsAy12n1TZm8ha-31" value="Numero civico" style="text;html=1;align=center;verticalAlign=middle;resizable=0;points=[];autosize=1;strokeColor=none;fillColor=none;" parent="1" vertex="1">
          <mxGeometry x="81" y="295" width="90" height="20" as="geometry" />
        </mxCell>
        <mxCell id="V4bar3wsAy12n1TZm8ha-32" value="CittÃ " style="text;html=1;align=center;verticalAlign=middle;resizable=0;points=[];autosize=1;strokeColor=none;fillColor=none;" parent="1" vertex="1">
          <mxGeometry x="130" y="315" width="40" height="20" as="geometry" />
        </mxCell>
        <mxCell id="V4bar3wsAy12n1TZm8ha-33" value="" style="ellipse;whiteSpace=wrap;html=1;aspect=fixed;strokeWidth=1;fillColor=none;" parent="1" vertex="1">
          <mxGeometry x="170" y="320" width="10" height="10" as="geometry" />
        </mxCell>
        <mxCell id="V4bar3wsAy12n1TZm8ha-34" value="" style="endArrow=none;html=1;rounded=0;entryX=1;entryY=0.5;entryDx=0;entryDy=0;exitX=0;exitY=0.5;exitDx=0;exitDy=0;" parent="1" source="V4bar3wsAy12n1TZm8ha-9" target="V4bar3wsAy12n1TZm8ha-33" edge="1">
          <mxGeometry width="50" height="50" relative="1" as="geometry">
            <mxPoint x="190" y="310" as="sourcePoint" />
            <mxPoint x="220.999999999998" y="317" as="targetPoint" />
          </mxGeometry>
        </mxCell>
        <mxCell id="V4bar3wsAy12n1TZm8ha-35" value="Nazione" style="text;html=1;align=center;verticalAlign=middle;resizable=0;points=[];autosize=1;strokeColor=none;fillColor=none;" parent="1" vertex="1">
          <mxGeometry x="111" y="335" width="60" height="20" as="geometry" />
        </mxCell>
        <mxCell id="V4bar3wsAy12n1TZm8ha-38" value="Contatto preferito" style="text;html=1;align=center;verticalAlign=middle;resizable=0;points=[];autosize=1;strokeColor=none;fillColor=none;" parent="1" vertex="1">
          <mxGeometry x="401" y="321" width="110" height="20" as="geometry" />
        </mxCell>
        <mxCell id="V4bar3wsAy12n1TZm8ha-39" value="Privato" style="rounded=0;whiteSpace=wrap;html=1;strokeWidth=1;perimeterSpacing=0;" parent="1" vertex="1">
          <mxGeometry x="160" y="400" width="120" height="40" as="geometry" />
        </mxCell>
        <mxCell id="V4bar3wsAy12n1TZm8ha-40" value="Rivendita" style="rounded=0;whiteSpace=wrap;html=1;strokeWidth=1;perimeterSpacing=0;" parent="1" vertex="1">
          <mxGeometry x="480" y="400" width="120" height="40" as="geometry" />
        </mxCell>
        <mxCell id="V4bar3wsAy12n1TZm8ha-41" value="" style="endArrow=none;html=1;rounded=0;" parent="1" edge="1">
          <mxGeometry width="50" height="50" relative="1" as="geometry">
            <mxPoint x="221" y="361" as="sourcePoint" />
            <mxPoint x="540" y="360" as="targetPoint" />
          </mxGeometry>
        </mxCell>
        <mxCell id="V4bar3wsAy12n1TZm8ha-42" value="" style="endArrow=none;html=1;rounded=0;exitX=0.5;exitY=0;exitDx=0;exitDy=0;" parent="1" source="V4bar3wsAy12n1TZm8ha-39" edge="1">
          <mxGeometry width="50" height="50" relative="1" as="geometry">
            <mxPoint x="191" y="381" as="sourcePoint" />
            <mxPoint x="221" y="361" as="targetPoint" />
          </mxGeometry>
        </mxCell>
        <mxCell id="V4bar3wsAy12n1TZm8ha-43" value="" style="endArrow=none;html=1;rounded=0;exitX=0.5;exitY=0;exitDx=0;exitDy=0;" parent="1" source="V4bar3wsAy12n1TZm8ha-40" edge="1">
          <mxGeometry width="50" height="50" relative="1" as="geometry">
            <mxPoint x="521" y="381" as="sourcePoint" />
            <mxPoint x="540" y="360" as="targetPoint" />
          </mxGeometry>
        </mxCell>
        <mxCell id="V4bar3wsAy12n1TZm8ha-44" value="" style="shape=flexArrow;endArrow=classic;html=1;rounded=0;fillColor=#000000;" parent="1" edge="1">
          <mxGeometry width="50" height="50" relative="1" as="geometry">
            <mxPoint x="380" y="361" as="sourcePoint" />
            <mxPoint x="380" y="281" as="targetPoint" />
          </mxGeometry>
        </mxCell>
        <mxCell id="V4bar3wsAy12n1TZm8ha-45" value="" style="ellipse;whiteSpace=wrap;html=1;aspect=fixed;strokeWidth=1;fillColor=none;" parent="1" vertex="1">
          <mxGeometry x="121" y="405" width="10" height="10" as="geometry" />
        </mxCell>
        <mxCell id="V4bar3wsAy12n1TZm8ha-46" value="" style="endArrow=none;html=1;rounded=0;fillColor=#000000;exitX=1;exitY=0.5;exitDx=0;exitDy=0;entryX=0;entryY=0.25;entryDx=0;entryDy=0;" parent="1" source="V4bar3wsAy12n1TZm8ha-45" target="V4bar3wsAy12n1TZm8ha-39" edge="1">
          <mxGeometry width="50" height="50" relative="1" as="geometry">
            <mxPoint x="111" y="411" as="sourcePoint" />
            <mxPoint x="161" y="361" as="targetPoint" />
          </mxGeometry>
        </mxCell>
        <mxCell id="V4bar3wsAy12n1TZm8ha-47" value="Nome" style="text;html=1;align=center;verticalAlign=middle;resizable=0;points=[];autosize=1;strokeColor=none;fillColor=none;" parent="1" vertex="1">
          <mxGeometry x="74" y="399" width="50" height="20" as="geometry" />
        </mxCell>
        <mxCell id="V4bar3wsAy12n1TZm8ha-48" value="" style="ellipse;whiteSpace=wrap;html=1;aspect=fixed;strokeWidth=1;fillColor=none;" parent="1" vertex="1">
          <mxGeometry x="120" y="425" width="10" height="10" as="geometry" />
        </mxCell>
        <mxCell id="V4bar3wsAy12n1TZm8ha-49" value="" style="endArrow=none;html=1;rounded=0;fillColor=#000000;entryX=0;entryY=0.75;entryDx=0;entryDy=0;exitX=1;exitY=0.5;exitDx=0;exitDy=0;" parent="1" source="V4bar3wsAy12n1TZm8ha-48" target="V4bar3wsAy12n1TZm8ha-39" edge="1">
          <mxGeometry width="50" height="50" relative="1" as="geometry">
            <mxPoint x="131" y="431" as="sourcePoint" />
            <mxPoint x="151" y="381" as="targetPoint" />
          </mxGeometry>
        </mxCell>
        <mxCell id="V4bar3wsAy12n1TZm8ha-50" value="Cognome" style="text;html=1;align=center;verticalAlign=middle;resizable=0;points=[];autosize=1;strokeColor=none;fillColor=none;" parent="1" vertex="1">
          <mxGeometry x="55" y="419" width="70" height="20" as="geometry" />
        </mxCell>
        <mxCell id="V4bar3wsAy12n1TZm8ha-51" value="" style="ellipse;whiteSpace=wrap;html=1;aspect=fixed;strokeWidth=1;fillColor=none;" parent="1" vertex="1">
          <mxGeometry x="310" y="405" width="10" height="10" as="geometry" />
        </mxCell>
        <mxCell id="V4bar3wsAy12n1TZm8ha-52" value="" style="endArrow=none;html=1;rounded=0;fillColor=#000000;exitX=0;exitY=0.5;exitDx=0;exitDy=0;entryX=1;entryY=0.25;entryDx=0;entryDy=0;" parent="1" source="V4bar3wsAy12n1TZm8ha-51" target="V4bar3wsAy12n1TZm8ha-39" edge="1">
          <mxGeometry width="50" height="50" relative="1" as="geometry">
            <mxPoint x="221" y="470.44" as="sourcePoint" />
            <mxPoint x="195.95999999999998" y="441" as="targetPoint" />
          </mxGeometry>
        </mxCell>
        <mxCell id="V4bar3wsAy12n1TZm8ha-53" value="CF" style="text;html=1;align=center;verticalAlign=middle;resizable=0;points=[];autosize=1;strokeColor=none;fillColor=none;" parent="1" vertex="1">
          <mxGeometry x="322" y="400" width="30" height="20" as="geometry" />
        </mxCell>
        <mxCell id="V4bar3wsAy12n1TZm8ha-54" value="" style="ellipse;whiteSpace=wrap;html=1;aspect=fixed;strokeWidth=1;fillColor=none;" parent="1" vertex="1">
          <mxGeometry x="631" y="405" width="10" height="10" as="geometry" />
        </mxCell>
        <mxCell id="V4bar3wsAy12n1TZm8ha-55" value="" style="ellipse;whiteSpace=wrap;html=1;aspect=fixed;strokeWidth=1;fillColor=none;" parent="1" vertex="1">
          <mxGeometry x="631" y="425" width="10" height="10" as="geometry" />
        </mxCell>
        <mxCell id="V4bar3wsAy12n1TZm8ha-56" value="Partita IVA" style="text;html=1;align=center;verticalAlign=middle;resizable=0;points=[];autosize=1;strokeColor=none;fillColor=none;" parent="1" vertex="1">
          <mxGeometry x="642" y="400" width="70" height="20" as="geometry" />
        </mxCell>
        <mxCell id="V4bar3wsAy12n1TZm8ha-57" value="Nome" style="text;html=1;align=center;verticalAlign=middle;resizable=0;points=[];autosize=1;strokeColor=none;fillColor=none;" parent="1" vertex="1">
          <mxGeometry x="640" y="420" width="50" height="20" as="geometry" />
        </mxCell>
        <mxCell id="V4bar3wsAy12n1TZm8ha-58" value="" style="endArrow=none;html=1;rounded=0;fillColor=#000000;entryX=0;entryY=0.5;entryDx=0;entryDy=0;exitX=1;exitY=0.25;exitDx=0;exitDy=0;" parent="1" source="V4bar3wsAy12n1TZm8ha-40" target="V4bar3wsAy12n1TZm8ha-54" edge="1">
          <mxGeometry width="50" height="50" relative="1" as="geometry">
            <mxPoint x="631" y="461" as="sourcePoint" />
            <mxPoint x="681" y="411" as="targetPoint" />
          </mxGeometry>
        </mxCell>
        <mxCell id="V4bar3wsAy12n1TZm8ha-59" value="" style="endArrow=none;html=1;rounded=0;fillColor=#000000;exitX=1;exitY=0.75;exitDx=0;exitDy=0;entryX=0;entryY=0.5;entryDx=0;entryDy=0;" parent="1" source="V4bar3wsAy12n1TZm8ha-40" target="V4bar3wsAy12n1TZm8ha-55" edge="1">
          <mxGeometry width="50" height="50" relative="1" as="geometry">
            <mxPoint x="631" y="461" as="sourcePoint" />
            <mxPoint x="681" y="411" as="targetPoint" />
          </mxGeometry>
        </mxCell>
        <mxCell id="V4bar3wsAy12n1TZm8ha-60" value="Referente" style="rounded=0;whiteSpace=wrap;html=1;strokeWidth=1;perimeterSpacing=0;" parent="1" vertex="1">
          <mxGeometry x="480" y="640" width="120" height="40" as="geometry" />
        </mxCell>
        <mxCell id="V4bar3wsAy12n1TZm8ha-61" value="rappresentazione" style="rhombus;whiteSpace=wrap;html=1;" parent="1" vertex="1">
          <mxGeometry x="480" y="520" width="120" height="40" as="geometry" />
        </mxCell>
        <mxCell id="V4bar3wsAy12n1TZm8ha-62" value="" style="endArrow=none;html=1;rounded=0;entryX=0.5;entryY=1;entryDx=0;entryDy=0;exitX=0.5;exitY=0;exitDx=0;exitDy=0;" parent="1" source="V4bar3wsAy12n1TZm8ha-61" target="V4bar3wsAy12n1TZm8ha-40" edge="1">
          <mxGeometry width="50" height="50" relative="1" as="geometry">
            <mxPoint x="491" y="561" as="sourcePoint" />
            <mxPoint x="541" y="511" as="targetPoint" />
          </mxGeometry>
        </mxCell>
        <mxCell id="V4bar3wsAy12n1TZm8ha-63" value="" style="endArrow=none;html=1;rounded=0;exitX=0.5;exitY=0;exitDx=0;exitDy=0;entryX=0.5;entryY=1;entryDx=0;entryDy=0;" parent="1" source="V4bar3wsAy12n1TZm8ha-60" target="V4bar3wsAy12n1TZm8ha-61" edge="1">
          <mxGeometry width="50" height="50" relative="1" as="geometry">
            <mxPoint x="491" y="561" as="sourcePoint" />
            <mxPoint x="571" y="581" as="targetPoint" />
          </mxGeometry>
        </mxCell>
        <mxCell id="V4bar3wsAy12n1TZm8ha-64" value="" style="ellipse;whiteSpace=wrap;html=1;aspect=fixed;strokeWidth=1;fillColor=none;" parent="1" vertex="1">
          <mxGeometry x="440" y="645" width="10" height="10" as="geometry" />
        </mxCell>
        <mxCell id="V4bar3wsAy12n1TZm8ha-65" value="" style="endArrow=none;html=1;rounded=0;fillColor=#000000;exitX=1;exitY=0.5;exitDx=0;exitDy=0;entryX=0;entryY=0.25;entryDx=0;entryDy=0;" parent="1" source="V4bar3wsAy12n1TZm8ha-64" target="V4bar3wsAy12n1TZm8ha-60" edge="1">
          <mxGeometry width="50" height="50" relative="1" as="geometry">
            <mxPoint x="431" y="651" as="sourcePoint" />
            <mxPoint x="481" y="651" as="targetPoint" />
          </mxGeometry>
        </mxCell>
        <mxCell id="V4bar3wsAy12n1TZm8ha-66" value="Nome" style="text;html=1;align=center;verticalAlign=middle;resizable=0;points=[];autosize=1;strokeColor=none;fillColor=none;" parent="1" vertex="1">
          <mxGeometry x="394" y="640" width="50" height="20" as="geometry" />
        </mxCell>
        <mxCell id="V4bar3wsAy12n1TZm8ha-67" value="" style="ellipse;whiteSpace=wrap;html=1;aspect=fixed;strokeWidth=1;fillColor=none;" parent="1" vertex="1">
          <mxGeometry x="440" y="665" width="10" height="10" as="geometry" />
        </mxCell>
        <mxCell id="V4bar3wsAy12n1TZm8ha-68" value="" style="endArrow=none;html=1;rounded=0;fillColor=#000000;entryX=0;entryY=0.75;entryDx=0;entryDy=0;exitX=1;exitY=0.5;exitDx=0;exitDy=0;" parent="1" source="V4bar3wsAy12n1TZm8ha-67" target="V4bar3wsAy12n1TZm8ha-60" edge="1">
          <mxGeometry width="50" height="50" relative="1" as="geometry">
            <mxPoint x="451" y="671" as="sourcePoint" />
            <mxPoint x="481" y="671" as="targetPoint" />
          </mxGeometry>
        </mxCell>
        <mxCell id="V4bar3wsAy12n1TZm8ha-69" value="Cognome" style="text;html=1;align=center;verticalAlign=middle;resizable=0;points=[];autosize=1;strokeColor=none;fillColor=none;" parent="1" vertex="1">
          <mxGeometry x="374" y="659" width="70" height="20" as="geometry" />
        </mxCell>
        <mxCell id="V4bar3wsAy12n1TZm8ha-71" value="Contatto preferito" style="text;html=1;align=center;verticalAlign=middle;resizable=0;points=[];autosize=1;strokeColor=none;fillColor=none;" parent="1" vertex="1">
          <mxGeometry x="435" y="721" width="110" height="20" as="geometry" />
        </mxCell>
        <mxCell id="V4bar3wsAy12n1TZm8ha-76" value="" style="endArrow=none;html=1;rounded=0;" parent="1" edge="1">
          <mxGeometry width="50" height="50" relative="1" as="geometry">
            <mxPoint x="461" y="681" as="sourcePoint" />
            <mxPoint x="551" y="631" as="targetPoint" />
            <Array as="points">
              <mxPoint x="461" y="631" />
            </Array>
          </mxGeometry>
        </mxCell>
        <mxCell id="V4bar3wsAy12n1TZm8ha-77" value="" style="ellipse;whiteSpace=wrap;html=1;aspect=fixed;strokeWidth=1;fillColor=#000000;" parent="1" vertex="1">
          <mxGeometry x="551" y="626" width="10" height="10" as="geometry" />
        </mxCell>
        <mxCell id="V4bar3wsAy12n1TZm8ha-78" value="(1,1)" style="text;html=1;strokeColor=none;fillColor=none;align=center;verticalAlign=middle;whiteSpace=wrap;rounded=0;" parent="1" vertex="1">
          <mxGeometry x="531" y="440" width="60" height="30" as="geometry" />
        </mxCell>
        <mxCell id="V4bar3wsAy12n1TZm8ha-79" value="(1,1)" style="text;html=1;strokeColor=none;fillColor=none;align=center;verticalAlign=middle;whiteSpace=wrap;rounded=0;" parent="1" vertex="1">
          <mxGeometry x="526" y="595" width="60" height="30" as="geometry" />
        </mxCell>
        <mxCell id="V4bar3wsAy12n1TZm8ha-80" value="" style="endArrow=none;html=1;rounded=0;entryX=0.906;entryY=1.001;entryDx=0;entryDy=0;entryPerimeter=0;exitX=0.5;exitY=0;exitDx=0;exitDy=0;" parent="1" source="V4bar3wsAy12n1TZm8ha-6" target="V4bar3wsAy12n1TZm8ha-1" edge="1">
          <mxGeometry width="50" height="50" relative="1" as="geometry">
            <mxPoint x="431" y="311" as="sourcePoint" />
            <mxPoint x="431.32" y="281.48" as="targetPoint" />
          </mxGeometry>
        </mxCell>
        <mxCell id="V4bar3wsAy12n1TZm8ha-83" value="creazione" style="rhombus;whiteSpace=wrap;html=1;" parent="1" vertex="1">
          <mxGeometry x="560" y="240" width="120" height="40" as="geometry" />
        </mxCell>
        <mxCell id="V4bar3wsAy12n1TZm8ha-84" value="" style="endArrow=none;html=1;rounded=0;exitX=1;exitY=0.5;exitDx=0;exitDy=0;entryX=0;entryY=0.5;entryDx=0;entryDy=0;" parent="1" source="V4bar3wsAy12n1TZm8ha-1" target="V4bar3wsAy12n1TZm8ha-83" edge="1">
          <mxGeometry width="50" height="50" relative="1" as="geometry">
            <mxPoint x="551" y="301" as="sourcePoint" />
            <mxPoint x="601" y="251" as="targetPoint" />
          </mxGeometry>
        </mxCell>
        <mxCell id="V4bar3wsAy12n1TZm8ha-85" value="Indirizzo&lt;br&gt;Fatturazz." style="ellipse;whiteSpace=wrap;html=1;" parent="1" vertex="1">
          <mxGeometry x="200" y="190" width="80" height="40" as="geometry" />
        </mxCell>
        <mxCell id="V4bar3wsAy12n1TZm8ha-86" value="" style="ellipse;whiteSpace=wrap;html=1;aspect=fixed;strokeWidth=1;fillColor=none;" parent="1" vertex="1">
          <mxGeometry x="170" y="180" width="10" height="10" as="geometry" />
        </mxCell>
        <mxCell id="V4bar3wsAy12n1TZm8ha-87" value="" style="ellipse;whiteSpace=wrap;html=1;aspect=fixed;strokeWidth=1;fillColor=none;" parent="1" vertex="1">
          <mxGeometry x="170" y="200" width="10" height="10" as="geometry" />
        </mxCell>
        <mxCell id="V4bar3wsAy12n1TZm8ha-88" value="" style="ellipse;whiteSpace=wrap;html=1;aspect=fixed;strokeWidth=1;fillColor=none;" parent="1" vertex="1">
          <mxGeometry x="170" y="240" width="10" height="10" as="geometry" />
        </mxCell>
        <mxCell id="V4bar3wsAy12n1TZm8ha-89" value="" style="endArrow=none;html=1;rounded=0;entryX=1;entryY=0.5;entryDx=0;entryDy=0;exitX=0;exitY=0.5;exitDx=0;exitDy=0;" parent="1" source="V4bar3wsAy12n1TZm8ha-85" target="V4bar3wsAy12n1TZm8ha-86" edge="1">
          <mxGeometry width="50" height="50" relative="1" as="geometry">
            <mxPoint x="200" y="190" as="sourcePoint" />
            <mxPoint x="220.999999999998" y="187" as="targetPoint" />
          </mxGeometry>
        </mxCell>
        <mxCell id="V4bar3wsAy12n1TZm8ha-90" value="" style="endArrow=none;html=1;rounded=0;entryX=1;entryY=0.5;entryDx=0;entryDy=0;exitX=0;exitY=0.5;exitDx=0;exitDy=0;" parent="1" source="V4bar3wsAy12n1TZm8ha-85" target="V4bar3wsAy12n1TZm8ha-87" edge="1">
          <mxGeometry width="50" height="50" relative="1" as="geometry">
            <mxPoint x="200" y="200" as="sourcePoint" />
            <mxPoint x="220.999999999998" y="197" as="targetPoint" />
          </mxGeometry>
        </mxCell>
        <mxCell id="V4bar3wsAy12n1TZm8ha-91" value="" style="endArrow=none;html=1;rounded=0;entryX=1;entryY=0.5;entryDx=0;entryDy=0;exitX=0;exitY=0.5;exitDx=0;exitDy=0;" parent="1" source="V4bar3wsAy12n1TZm8ha-85" target="V4bar3wsAy12n1TZm8ha-88" edge="1">
          <mxGeometry width="50" height="50" relative="1" as="geometry">
            <mxPoint x="200" y="220" as="sourcePoint" />
            <mxPoint x="190.99999999999977" y="237" as="targetPoint" />
          </mxGeometry>
        </mxCell>
        <mxCell id="V4bar3wsAy12n1TZm8ha-92" value="Via" style="text;html=1;align=center;verticalAlign=middle;resizable=0;points=[];autosize=1;strokeColor=none;fillColor=none;" parent="1" vertex="1">
          <mxGeometry x="141" y="175" width="30" height="20" as="geometry" />
        </mxCell>
        <mxCell id="V4bar3wsAy12n1TZm8ha-93" value="Numero civico" style="text;html=1;align=center;verticalAlign=middle;resizable=0;points=[];autosize=1;strokeColor=none;fillColor=none;" parent="1" vertex="1">
          <mxGeometry x="81" y="195" width="90" height="20" as="geometry" />
        </mxCell>
        <mxCell id="V4bar3wsAy12n1TZm8ha-94" value="CittÃ " style="text;html=1;align=center;verticalAlign=middle;resizable=0;points=[];autosize=1;strokeColor=none;fillColor=none;" parent="1" vertex="1">
          <mxGeometry x="131" y="215" width="40" height="20" as="geometry" />
        </mxCell>
        <mxCell id="V4bar3wsAy12n1TZm8ha-95" value="" style="ellipse;whiteSpace=wrap;html=1;aspect=fixed;strokeWidth=1;fillColor=none;" parent="1" vertex="1">
          <mxGeometry x="170" y="220" width="10" height="10" as="geometry" />
        </mxCell>
        <mxCell id="V4bar3wsAy12n1TZm8ha-96" value="" style="endArrow=none;html=1;rounded=0;entryX=1;entryY=0.5;entryDx=0;entryDy=0;exitX=0;exitY=0.5;exitDx=0;exitDy=0;" parent="1" source="V4bar3wsAy12n1TZm8ha-85" target="V4bar3wsAy12n1TZm8ha-95" edge="1">
          <mxGeometry width="50" height="50" relative="1" as="geometry">
            <mxPoint x="190" y="210" as="sourcePoint" />
            <mxPoint x="220.999999999998" y="217" as="targetPoint" />
          </mxGeometry>
        </mxCell>
        <mxCell id="V4bar3wsAy12n1TZm8ha-97" value="Nazione" style="text;html=1;align=center;verticalAlign=middle;resizable=0;points=[];autosize=1;strokeColor=none;fillColor=none;" parent="1" vertex="1">
          <mxGeometry x="111" y="235" width="60" height="20" as="geometry" />
        </mxCell>
        <mxCell id="V4bar3wsAy12n1TZm8ha-98" value="" style="endArrow=none;html=1;rounded=0;entryX=0;entryY=0.5;entryDx=0;entryDy=0;exitX=1;exitY=0.5;exitDx=0;exitDy=0;" parent="1" source="V4bar3wsAy12n1TZm8ha-85" target="V4bar3wsAy12n1TZm8ha-1" edge="1">
          <mxGeometry width="50" height="50" relative="1" as="geometry">
            <mxPoint x="251" y="261" as="sourcePoint" />
            <mxPoint x="301" y="211" as="targetPoint" />
          </mxGeometry>
        </mxCell>
        <mxCell id="V4bar3wsAy12n1TZm8ha-100" value="" style="endArrow=none;html=1;rounded=0;entryX=0.5;entryY=1;entryDx=0;entryDy=0;exitX=0.875;exitY=-0.003;exitDx=0;exitDy=0;exitPerimeter=0;" parent="1" source="V4bar3wsAy12n1TZm8ha-1" target="D6odM5lhYbgwMnqIU5Fz-25" edge="1">
          <mxGeometry width="50" height="50" relative="1" as="geometry">
            <mxPoint x="431" y="239" as="sourcePoint" />
            <mxPoint x="431" y="210" as="targetPoint" />
          </mxGeometry>
        </mxCell>
        <mxCell id="V4bar3wsAy12n1TZm8ha-101" value="Ordine" style="rounded=0;whiteSpace=wrap;html=1;strokeWidth=1;perimeterSpacing=0;" parent="1" vertex="1">
          <mxGeometry x="800" y="240.5" width="120" height="40" as="geometry" />
        </mxCell>
        <mxCell id="V4bar3wsAy12n1TZm8ha-104" value="Stato" style="text;html=1;align=center;verticalAlign=middle;resizable=0;points=[];autosize=1;strokeColor=none;fillColor=none;" parent="1" vertex="1">
          <mxGeometry x="881" y="321" width="40" height="20" as="geometry" />
        </mxCell>
        <mxCell id="V4bar3wsAy12n1TZm8ha-105" value="Pacco" style="rounded=0;whiteSpace=wrap;html=1;strokeWidth=1;perimeterSpacing=0;" parent="1" vertex="1">
          <mxGeometry x="1200" y="240.5" width="120" height="40" as="geometry" />
        </mxCell>
        <mxCell id="V4bar3wsAy12n1TZm8ha-106" value="" style="endArrow=none;html=1;rounded=0;fillColor=#000000;entryX=0.166;entryY=0;entryDx=0;entryDy=0;entryPerimeter=0;exitX=0.5;exitY=1;exitDx=0;exitDy=0;" parent="1" source="V4bar3wsAy12n1TZm8ha-107" edge="1">
          <mxGeometry width="50" height="50" relative="1" as="geometry">
            <mxPoint x="861" y="220.5" as="sourcePoint" />
            <mxPoint x="860.9200000000001" y="240.5" as="targetPoint" />
          </mxGeometry>
        </mxCell>
        <mxCell id="V4bar3wsAy12n1TZm8ha-107" value="" style="ellipse;whiteSpace=wrap;html=1;aspect=fixed;strokeWidth=1;fillColor=#000000;" parent="1" vertex="1">
          <mxGeometry x="856" y="200.5" width="10" height="10" as="geometry" />
        </mxCell>
        <mxCell id="V4bar3wsAy12n1TZm8ha-108" value="Codice" style="text;html=1;align=center;verticalAlign=middle;resizable=0;points=[];autosize=1;strokeColor=none;fillColor=none;" parent="1" vertex="1">
          <mxGeometry x="836" y="180.5" width="50" height="20" as="geometry" />
        </mxCell>
        <mxCell id="V4bar3wsAy12n1TZm8ha-110" value="" style="ellipse;whiteSpace=wrap;html=1;aspect=fixed;strokeWidth=1;fillColor=none;" parent="1" vertex="1">
          <mxGeometry x="815" y="310" width="10" height="10" as="geometry" />
        </mxCell>
        <mxCell id="V4bar3wsAy12n1TZm8ha-111" value="Contatto" style="text;html=1;align=center;verticalAlign=middle;resizable=0;points=[];autosize=1;strokeColor=none;fillColor=none;" parent="1" vertex="1">
          <mxGeometry x="790" y="320" width="60" height="20" as="geometry" />
        </mxCell>
        <mxCell id="V4bar3wsAy12n1TZm8ha-112" value="" style="endArrow=none;html=1;rounded=0;fillColor=#000000;entryX=0.166;entryY=0;entryDx=0;entryDy=0;entryPerimeter=0;exitX=0.5;exitY=1;exitDx=0;exitDy=0;" parent="1" source="V4bar3wsAy12n1TZm8ha-113" edge="1">
          <mxGeometry width="50" height="50" relative="1" as="geometry">
            <mxPoint x="1219" y="220.5" as="sourcePoint" />
            <mxPoint x="1218.92" y="240.5" as="targetPoint" />
          </mxGeometry>
        </mxCell>
        <mxCell id="V4bar3wsAy12n1TZm8ha-113" value="" style="ellipse;whiteSpace=wrap;html=1;aspect=fixed;strokeWidth=1;fillColor=#000000;" parent="1" vertex="1">
          <mxGeometry x="1214" y="200.5" width="10" height="10" as="geometry" />
        </mxCell>
        <mxCell id="V4bar3wsAy12n1TZm8ha-114" value="Codice" style="text;html=1;align=center;verticalAlign=middle;resizable=0;points=[];autosize=1;strokeColor=none;fillColor=none;" parent="1" vertex="1">
          <mxGeometry x="1194" y="180.5" width="50" height="20" as="geometry" />
        </mxCell>
        <mxCell id="V4bar3wsAy12n1TZm8ha-115" value="aggregazione" style="rhombus;whiteSpace=wrap;html=1;" parent="1" vertex="1">
          <mxGeometry x="999" y="240.5" width="120" height="40" as="geometry" />
        </mxCell>
        <mxCell id="V4bar3wsAy12n1TZm8ha-116" value="" style="endArrow=none;html=1;rounded=0;entryX=0;entryY=0.5;entryDx=0;entryDy=0;exitX=1;exitY=0.5;exitDx=0;exitDy=0;" parent="1" source="V4bar3wsAy12n1TZm8ha-115" target="V4bar3wsAy12n1TZm8ha-105" edge="1">
          <mxGeometry width="50" height="50" relative="1" as="geometry">
            <mxPoint x="1099" y="330.5" as="sourcePoint" />
            <mxPoint x="1149" y="280.5" as="targetPoint" />
          </mxGeometry>
        </mxCell>
        <mxCell id="V4bar3wsAy12n1TZm8ha-117" value="" style="endArrow=none;html=1;rounded=0;entryX=1;entryY=0.5;entryDx=0;entryDy=0;exitX=0;exitY=0.5;exitDx=0;exitDy=0;" parent="1" source="V4bar3wsAy12n1TZm8ha-115" target="V4bar3wsAy12n1TZm8ha-101" edge="1">
          <mxGeometry width="50" height="50" relative="1" as="geometry">
            <mxPoint x="1102" y="330.5" as="sourcePoint" />
            <mxPoint x="1152" y="280.5" as="targetPoint" />
          </mxGeometry>
        </mxCell>
        <mxCell id="V4bar3wsAy12n1TZm8ha-119" value="immissione" style="rhombus;whiteSpace=wrap;html=1;" parent="1" vertex="1">
          <mxGeometry x="1399.5" y="360" width="120" height="40" as="geometry" />
        </mxCell>
        <mxCell id="V4bar3wsAy12n1TZm8ha-120" value="" style="endArrow=none;html=1;rounded=0;entryX=0.5;entryY=0;entryDx=0;entryDy=0;exitX=1;exitY=0.5;exitDx=0;exitDy=0;" parent="1" source="V4bar3wsAy12n1TZm8ha-105" target="V4bar3wsAy12n1TZm8ha-119" edge="1">
          <mxGeometry width="50" height="50" relative="1" as="geometry">
            <mxPoint x="1319" y="310.5" as="sourcePoint" />
            <mxPoint x="1369" y="260.5" as="targetPoint" />
            <Array as="points">
              <mxPoint x="1460" y="260" />
            </Array>
          </mxGeometry>
        </mxCell>
        <mxCell id="V4bar3wsAy12n1TZm8ha-121" value="" style="endArrow=none;html=1;rounded=0;exitX=0.5;exitY=1;exitDx=0;exitDy=0;entryX=0.417;entryY=-0.008;entryDx=0;entryDy=0;entryPerimeter=0;" parent="1" source="V4bar3wsAy12n1TZm8ha-119" target="V4bar3wsAy12n1TZm8ha-169" edge="1">
          <mxGeometry width="50" height="50" relative="1" as="geometry">
            <mxPoint x="1530" y="270" as="sourcePoint" />
            <mxPoint x="1600" y="410" as="targetPoint" />
            <Array as="points">
              <mxPoint x="1460" y="440" />
              <mxPoint x="1850" y="440" />
            </Array>
          </mxGeometry>
        </mxCell>
        <mxCell id="V4bar3wsAy12n1TZm8ha-122" value="" style="endArrow=none;html=1;rounded=0;fillColor=#000000;exitX=0.5;exitY=1;exitDx=0;exitDy=0;entryX=0.833;entryY=-0.013;entryDx=0;entryDy=0;entryPerimeter=0;" parent="1" source="V4bar3wsAy12n1TZm8ha-123" target="V4bar3wsAy12n1TZm8ha-105" edge="1">
          <mxGeometry width="50" height="50" relative="1" as="geometry">
            <mxPoint x="1300" y="220.5" as="sourcePoint" />
            <mxPoint x="1300" y="230" as="targetPoint" />
          </mxGeometry>
        </mxCell>
        <mxCell id="V4bar3wsAy12n1TZm8ha-123" value="" style="ellipse;whiteSpace=wrap;html=1;aspect=fixed;strokeWidth=1;fillColor=none;" parent="1" vertex="1">
          <mxGeometry x="1295" y="200.5" width="10" height="10" as="geometry" />
        </mxCell>
        <mxCell id="V4bar3wsAy12n1TZm8ha-124" value="&lt;span style=&quot;color: rgb(0 , 0 , 0) ; font-family: &amp;#34;helvetica&amp;#34; ; font-size: 12px ; font-style: normal ; font-weight: 400 ; letter-spacing: normal ; text-align: center ; text-indent: 0px ; text-transform: none ; word-spacing: 0px ; background-color: rgb(248 , 249 , 250) ; display: inline ; float: none&quot;&gt;Num. Piante&lt;/span&gt;" style="text;whiteSpace=wrap;html=1;" parent="1" vertex="1">
          <mxGeometry x="1265" y="175.5" width="80" height="30" as="geometry" />
        </mxCell>
        <mxCell id="V4bar3wsAy12n1TZm8ha-125" value="(1,N)" style="text;html=1;align=center;verticalAlign=middle;resizable=0;points=[];autosize=1;strokeColor=none;fillColor=none;" parent="1" vertex="1">
          <mxGeometry x="921" y="240.5" width="40" height="20" as="geometry" />
        </mxCell>
        <mxCell id="V4bar3wsAy12n1TZm8ha-126" value="(1,1)" style="text;html=1;align=center;verticalAlign=middle;resizable=0;points=[];autosize=1;strokeColor=none;fillColor=none;" parent="1" vertex="1">
          <mxGeometry x="1159" y="240.5" width="40" height="20" as="geometry" />
        </mxCell>
        <mxCell id="V4bar3wsAy12n1TZm8ha-127" value="inizializzazione" style="rhombus;whiteSpace=wrap;html=1;" parent="1" vertex="1">
          <mxGeometry x="1200" y="80" width="120" height="40" as="geometry" />
        </mxCell>
        <mxCell id="V4bar3wsAy12n1TZm8ha-128" value="Indirizzo" style="ellipse;whiteSpace=wrap;html=1;" parent="1" vertex="1">
          <mxGeometry x="730" y="167" width="80" height="41" as="geometry" />
        </mxCell>
        <mxCell id="V4bar3wsAy12n1TZm8ha-129" value="" style="ellipse;whiteSpace=wrap;html=1;aspect=fixed;strokeWidth=1;fillColor=none;" parent="1" vertex="1">
          <mxGeometry x="700" y="149" width="10" height="10" as="geometry" />
        </mxCell>
        <mxCell id="V4bar3wsAy12n1TZm8ha-130" value="" style="ellipse;whiteSpace=wrap;html=1;aspect=fixed;strokeWidth=1;fillColor=none;" parent="1" vertex="1">
          <mxGeometry x="700" y="170" width="10" height="10" as="geometry" />
        </mxCell>
        <mxCell id="V4bar3wsAy12n1TZm8ha-131" value="" style="ellipse;whiteSpace=wrap;html=1;aspect=fixed;strokeWidth=1;fillColor=none;" parent="1" vertex="1">
          <mxGeometry x="700" y="210" width="10" height="10" as="geometry" />
        </mxCell>
        <mxCell id="V4bar3wsAy12n1TZm8ha-132" value="" style="endArrow=none;html=1;rounded=0;entryX=1;entryY=0.5;entryDx=0;entryDy=0;exitX=0;exitY=0.5;exitDx=0;exitDy=0;" parent="1" source="V4bar3wsAy12n1TZm8ha-128" target="V4bar3wsAy12n1TZm8ha-129" edge="1">
          <mxGeometry width="50" height="50" relative="1" as="geometry">
            <mxPoint x="730" y="188" as="sourcePoint" />
            <mxPoint x="749.999999999998" y="163" as="targetPoint" />
          </mxGeometry>
        </mxCell>
        <mxCell id="V4bar3wsAy12n1TZm8ha-133" value="" style="endArrow=none;html=1;rounded=0;entryX=1;entryY=0.5;entryDx=0;entryDy=0;exitX=0;exitY=0.5;exitDx=0;exitDy=0;" parent="1" source="V4bar3wsAy12n1TZm8ha-128" target="V4bar3wsAy12n1TZm8ha-130" edge="1">
          <mxGeometry width="50" height="50" relative="1" as="geometry">
            <mxPoint x="730" y="188" as="sourcePoint" />
            <mxPoint x="749.999999999998" y="173" as="targetPoint" />
          </mxGeometry>
        </mxCell>
        <mxCell id="V4bar3wsAy12n1TZm8ha-134" value="" style="endArrow=none;html=1;rounded=0;entryX=1;entryY=0.5;entryDx=0;entryDy=0;exitX=0;exitY=0.5;exitDx=0;exitDy=0;" parent="1" source="V4bar3wsAy12n1TZm8ha-128" target="V4bar3wsAy12n1TZm8ha-131" edge="1">
          <mxGeometry width="50" height="50" relative="1" as="geometry">
            <mxPoint x="730" y="188" as="sourcePoint" />
            <mxPoint x="719.9999999999998" y="213" as="targetPoint" />
          </mxGeometry>
        </mxCell>
        <mxCell id="V4bar3wsAy12n1TZm8ha-135" value="Via" style="text;html=1;align=center;verticalAlign=middle;resizable=0;points=[];autosize=1;strokeColor=none;fillColor=none;" parent="1" vertex="1">
          <mxGeometry x="670" y="144" width="30" height="20" as="geometry" />
        </mxCell>
        <mxCell id="V4bar3wsAy12n1TZm8ha-136" value="Numero civico" style="text;html=1;align=center;verticalAlign=middle;resizable=0;points=[];autosize=1;strokeColor=none;fillColor=none;" parent="1" vertex="1">
          <mxGeometry x="610" y="165" width="90" height="20" as="geometry" />
        </mxCell>
        <mxCell id="V4bar3wsAy12n1TZm8ha-137" value="CittÃ " style="text;html=1;align=center;verticalAlign=middle;resizable=0;points=[];autosize=1;strokeColor=none;fillColor=none;" parent="1" vertex="1">
          <mxGeometry x="660" y="185" width="40" height="20" as="geometry" />
        </mxCell>
        <mxCell id="V4bar3wsAy12n1TZm8ha-138" value="" style="ellipse;whiteSpace=wrap;html=1;aspect=fixed;strokeWidth=1;fillColor=none;" parent="1" vertex="1">
          <mxGeometry x="700" y="190" width="10" height="10" as="geometry" />
        </mxCell>
        <mxCell id="V4bar3wsAy12n1TZm8ha-139" value="" style="endArrow=none;html=1;rounded=0;entryX=1;entryY=0.5;entryDx=0;entryDy=0;exitX=0;exitY=0.5;exitDx=0;exitDy=0;" parent="1" source="V4bar3wsAy12n1TZm8ha-128" target="V4bar3wsAy12n1TZm8ha-138" edge="1">
          <mxGeometry width="50" height="50" relative="1" as="geometry">
            <mxPoint x="720" y="180" as="sourcePoint" />
            <mxPoint x="749.999999999998" y="193" as="targetPoint" />
          </mxGeometry>
        </mxCell>
        <mxCell id="V4bar3wsAy12n1TZm8ha-140" value="Nazione" style="text;html=1;align=center;verticalAlign=middle;resizable=0;points=[];autosize=1;strokeColor=none;fillColor=none;" parent="1" vertex="1">
          <mxGeometry x="641" y="205" width="60" height="20" as="geometry" />
        </mxCell>
        <mxCell id="V4bar3wsAy12n1TZm8ha-142" value="" style="endArrow=none;html=1;rounded=0;entryX=0;entryY=0.5;entryDx=0;entryDy=0;exitX=0.831;exitY=0.005;exitDx=0;exitDy=0;exitPerimeter=0;" parent="1" source="V4bar3wsAy12n1TZm8ha-101" target="V4bar3wsAy12n1TZm8ha-127" edge="1">
          <mxGeometry width="50" height="50" relative="1" as="geometry">
            <mxPoint x="901" y="281" as="sourcePoint" />
            <mxPoint x="991" y="220.5" as="targetPoint" />
            <Array as="points">
              <mxPoint x="901" y="101" />
            </Array>
          </mxGeometry>
        </mxCell>
        <mxCell id="V4bar3wsAy12n1TZm8ha-143" value="" style="endArrow=none;html=1;rounded=0;exitX=1;exitY=0.5;exitDx=0;exitDy=0;entryX=0.5;entryY=0;entryDx=0;entryDy=0;" parent="1" source="V4bar3wsAy12n1TZm8ha-127" edge="1">
          <mxGeometry width="50" height="50" relative="1" as="geometry">
            <mxPoint x="1448" y="370.5" as="sourcePoint" />
            <mxPoint x="1660" y="240.5" as="targetPoint" />
            <Array as="points">
              <mxPoint x="1660" y="100" />
            </Array>
          </mxGeometry>
        </mxCell>
        <mxCell id="V4bar3wsAy12n1TZm8ha-144" value="" style="endArrow=none;html=1;rounded=0;fillColor=#000000;exitX=0.5;exitY=1;exitDx=0;exitDy=0;entryX=0.5;entryY=0;entryDx=0;entryDy=0;" parent="1" source="V4bar3wsAy12n1TZm8ha-145" target="V4bar3wsAy12n1TZm8ha-127" edge="1">
          <mxGeometry width="50" height="50" relative="1" as="geometry">
            <mxPoint x="1208" y="340.5" as="sourcePoint" />
            <mxPoint x="1260" y="70" as="targetPoint" />
          </mxGeometry>
        </mxCell>
        <mxCell id="V4bar3wsAy12n1TZm8ha-145" value="" style="ellipse;whiteSpace=wrap;html=1;aspect=fixed;strokeWidth=1;fillColor=none;" parent="1" vertex="1">
          <mxGeometry x="1255" y="41" width="10" height="10" as="geometry" />
        </mxCell>
        <mxCell id="V4bar3wsAy12n1TZm8ha-146" value="QuantitÃ " style="text;html=1;align=center;verticalAlign=middle;resizable=0;points=[];autosize=1;strokeColor=none;fillColor=none;" parent="1" vertex="1">
          <mxGeometry x="1230" y="21" width="60" height="20" as="geometry" />
        </mxCell>
        <mxCell id="V4bar3wsAy12n1TZm8ha-147" value="" style="endArrow=none;html=1;rounded=0;fillColor=#000000;exitX=0.5;exitY=1;exitDx=0;exitDy=0;" parent="1" source="V4bar3wsAy12n1TZm8ha-148" edge="1">
          <mxGeometry width="50" height="50" relative="1" as="geometry">
            <mxPoint x="1594.5" y="225.5" as="sourcePoint" />
            <mxPoint x="1520" y="380" as="targetPoint" />
          </mxGeometry>
        </mxCell>
        <mxCell id="V4bar3wsAy12n1TZm8ha-148" value="" style="ellipse;whiteSpace=wrap;html=1;aspect=fixed;strokeWidth=1;fillColor=none;" parent="1" vertex="1">
          <mxGeometry x="1515" y="340" width="10" height="10" as="geometry" />
        </mxCell>
        <mxCell id="V4bar3wsAy12n1TZm8ha-149" value="QuantitÃ " style="text;html=1;align=center;verticalAlign=middle;resizable=0;points=[];autosize=1;strokeColor=none;fillColor=none;" parent="1" vertex="1">
          <mxGeometry x="1490" y="321" width="60" height="20" as="geometry" />
        </mxCell>
        <mxCell id="V4bar3wsAy12n1TZm8ha-150" value="(1,N)" style="text;html=1;align=center;verticalAlign=middle;resizable=0;points=[];autosize=1;strokeColor=none;fillColor=none;" parent="1" vertex="1">
          <mxGeometry x="1324" y="240" width="40" height="20" as="geometry" />
        </mxCell>
        <mxCell id="V4bar3wsAy12n1TZm8ha-151" value="(0,N)" style="text;html=1;align=center;verticalAlign=middle;resizable=0;points=[];autosize=1;strokeColor=none;fillColor=none;" parent="1" vertex="1">
          <mxGeometry x="1470" y="420" width="40" height="20" as="geometry" />
        </mxCell>
        <mxCell id="V4bar3wsAy12n1TZm8ha-152" value="" style="endArrow=none;html=1;rounded=0;exitX=1;exitY=0.5;exitDx=0;exitDy=0;entryX=0;entryY=0.5;entryDx=0;entryDy=0;" parent="1" source="V4bar3wsAy12n1TZm8ha-83" target="V4bar3wsAy12n1TZm8ha-101" edge="1">
          <mxGeometry width="50" height="50" relative="1" as="geometry">
            <mxPoint x="751" y="311" as="sourcePoint" />
            <mxPoint x="790" y="260" as="targetPoint" />
          </mxGeometry>
        </mxCell>
        <mxCell id="V4bar3wsAy12n1TZm8ha-154" value="" style="endArrow=none;html=1;rounded=0;entryX=0.084;entryY=1.008;entryDx=0;entryDy=0;entryPerimeter=0;exitX=0.5;exitY=0;exitDx=0;exitDy=0;" parent="1" source="D6odM5lhYbgwMnqIU5Fz-43" target="V4bar3wsAy12n1TZm8ha-60" edge="1">
          <mxGeometry width="50" height="50" relative="1" as="geometry">
            <mxPoint x="490" y="700" as="sourcePoint" />
            <mxPoint x="490.03999999999996" y="681" as="targetPoint" />
          </mxGeometry>
        </mxCell>
        <mxCell id="V4bar3wsAy12n1TZm8ha-157" value="supervisione" style="rhombus;whiteSpace=wrap;html=1;" parent="1" vertex="1">
          <mxGeometry x="680" y="640" width="120" height="40" as="geometry" />
        </mxCell>
        <mxCell id="V4bar3wsAy12n1TZm8ha-158" value="" style="endArrow=none;html=1;rounded=0;exitX=1;exitY=0.5;exitDx=0;exitDy=0;entryX=0;entryY=0.5;entryDx=0;entryDy=0;" parent="1" source="V4bar3wsAy12n1TZm8ha-60" target="V4bar3wsAy12n1TZm8ha-157" edge="1">
          <mxGeometry width="50" height="50" relative="1" as="geometry">
            <mxPoint x="641" y="661" as="sourcePoint" />
            <mxPoint x="691" y="611" as="targetPoint" />
          </mxGeometry>
        </mxCell>
        <mxCell id="V4bar3wsAy12n1TZm8ha-159" value="" style="endArrow=none;html=1;rounded=0;exitX=1;exitY=0.5;exitDx=0;exitDy=0;entryX=0.5;entryY=1;entryDx=0;entryDy=0;" parent="1" source="V4bar3wsAy12n1TZm8ha-157" target="V4bar3wsAy12n1TZm8ha-101" edge="1">
          <mxGeometry width="50" height="50" relative="1" as="geometry">
            <mxPoint x="856" y="660" as="sourcePoint" />
            <mxPoint x="906" y="610" as="targetPoint" />
            <Array as="points">
              <mxPoint x="861" y="660" />
            </Array>
          </mxGeometry>
        </mxCell>
        <mxCell id="V4bar3wsAy12n1TZm8ha-160" value="" style="endArrow=none;html=1;rounded=0;exitX=0.5;exitY=0;exitDx=0;exitDy=0;entryX=0.167;entryY=1.013;entryDx=0;entryDy=0;entryPerimeter=0;" parent="1" source="V4bar3wsAy12n1TZm8ha-110" target="V4bar3wsAy12n1TZm8ha-101" edge="1">
          <mxGeometry width="50" height="50" relative="1" as="geometry">
            <mxPoint x="881" y="311" as="sourcePoint" />
            <mxPoint x="931" y="261" as="targetPoint" />
          </mxGeometry>
        </mxCell>
        <mxCell id="V4bar3wsAy12n1TZm8ha-161" value="" style="endArrow=none;html=1;rounded=0;entryX=1;entryY=0.5;entryDx=0;entryDy=0;exitX=0.085;exitY=0.007;exitDx=0;exitDy=0;exitPerimeter=0;" parent="1" source="V4bar3wsAy12n1TZm8ha-101" target="V4bar3wsAy12n1TZm8ha-128" edge="1">
          <mxGeometry width="50" height="50" relative="1" as="geometry">
            <mxPoint x="741" y="241" as="sourcePoint" />
            <mxPoint x="791" y="191" as="targetPoint" />
          </mxGeometry>
        </mxCell>
        <mxCell id="V4bar3wsAy12n1TZm8ha-162" value="(1,N)" style="text;html=1;align=center;verticalAlign=middle;resizable=0;points=[];autosize=1;strokeColor=none;fillColor=none;" parent="1" vertex="1">
          <mxGeometry x="1159" y="81" width="40" height="20" as="geometry" />
        </mxCell>
        <mxCell id="V4bar3wsAy12n1TZm8ha-163" value="(0,N)" style="text;html=1;align=center;verticalAlign=middle;resizable=0;points=[];autosize=1;strokeColor=none;fillColor=none;" parent="1" vertex="1">
          <mxGeometry x="1615.5" y="81" width="40" height="20" as="geometry" />
        </mxCell>
        <mxCell id="V4bar3wsAy12n1TZm8ha-164" value="" style="ellipse;whiteSpace=wrap;html=1;aspect=fixed;strokeWidth=1;fillColor=none;" parent="1" vertex="1">
          <mxGeometry x="895" y="310" width="10" height="10" as="geometry" />
        </mxCell>
        <mxCell id="V4bar3wsAy12n1TZm8ha-165" value="" style="endArrow=none;html=1;rounded=0;exitX=0.5;exitY=0;exitDx=0;exitDy=0;entryX=0.167;entryY=1.013;entryDx=0;entryDy=0;entryPerimeter=0;" parent="1" source="V4bar3wsAy12n1TZm8ha-164" edge="1">
          <mxGeometry width="50" height="50" relative="1" as="geometry">
            <mxPoint x="900" y="310.98" as="sourcePoint" />
            <mxPoint x="900.04" y="281" as="targetPoint" />
          </mxGeometry>
        </mxCell>
        <mxCell id="V4bar3wsAy12n1TZm8ha-166" value="Pianta da interno" style="rounded=0;whiteSpace=wrap;html=1;strokeWidth=1;perimeterSpacing=0;" parent="1" vertex="1">
          <mxGeometry x="2200" y="760" width="120" height="40" as="geometry" />
        </mxCell>
        <mxCell id="V4bar3wsAy12n1TZm8ha-167" value="Pianta da esterno" style="rounded=0;whiteSpace=wrap;html=1;strokeWidth=1;perimeterSpacing=0;" parent="1" vertex="1">
          <mxGeometry x="1559.5" y="760" width="120" height="40" as="geometry" />
        </mxCell>
        <mxCell id="V4bar3wsAy12n1TZm8ha-168" value="Pianta esotica" style="rounded=0;whiteSpace=wrap;html=1;strokeWidth=1;perimeterSpacing=0;" parent="1" vertex="1">
          <mxGeometry x="1719.5" y="760" width="120" height="40" as="geometry" />
        </mxCell>
        <mxCell id="V4bar3wsAy12n1TZm8ha-169" value="Pianta" style="rounded=0;whiteSpace=wrap;html=1;strokeWidth=1;perimeterSpacing=0;" parent="1" vertex="1">
          <mxGeometry x="1799.5" y="600" width="120" height="40" as="geometry" />
        </mxCell>
        <mxCell id="V4bar3wsAy12n1TZm8ha-170" value="Pianta non esotica" style="rounded=0;whiteSpace=wrap;html=1;strokeWidth=1;perimeterSpacing=0;" parent="1" vertex="1">
          <mxGeometry x="1879.5" y="760" width="120" height="40" as="geometry" />
        </mxCell>
        <mxCell id="V4bar3wsAy12n1TZm8ha-171" value="Pianta verde" style="rounded=0;whiteSpace=wrap;html=1;strokeWidth=1;perimeterSpacing=0;" parent="1" vertex="1">
          <mxGeometry x="2039.5" y="760" width="120" height="40" as="geometry" />
        </mxCell>
        <mxCell id="V4bar3wsAy12n1TZm8ha-172" value="Pianta fiorita" style="rounded=0;whiteSpace=wrap;html=1;strokeWidth=1;perimeterSpacing=0;" parent="1" vertex="1">
          <mxGeometry x="1399.5" y="760" width="120" height="40" as="geometry" />
        </mxCell>
        <mxCell id="V4bar3wsAy12n1TZm8ha-173" value="" style="endArrow=none;html=1;rounded=0;" parent="1" edge="1">
          <mxGeometry width="50" height="50" relative="1" as="geometry">
            <mxPoint x="1459.5" y="720" as="sourcePoint" />
            <mxPoint x="2259.5" y="720" as="targetPoint" />
          </mxGeometry>
        </mxCell>
        <mxCell id="V4bar3wsAy12n1TZm8ha-174" value="" style="endArrow=none;html=1;rounded=0;exitX=0.5;exitY=0;exitDx=0;exitDy=0;" parent="1" source="V4bar3wsAy12n1TZm8ha-166" edge="1">
          <mxGeometry width="50" height="50" relative="1" as="geometry">
            <mxPoint x="2264" y="750" as="sourcePoint" />
            <mxPoint x="2259.5" y="720" as="targetPoint" />
          </mxGeometry>
        </mxCell>
        <mxCell id="V4bar3wsAy12n1TZm8ha-175" value="" style="endArrow=none;html=1;rounded=0;exitX=0.5;exitY=0;exitDx=0;exitDy=0;" parent="1" source="V4bar3wsAy12n1TZm8ha-171" edge="1">
          <mxGeometry width="50" height="50" relative="1" as="geometry">
            <mxPoint x="2079.5" y="770" as="sourcePoint" />
            <mxPoint x="2099.5" y="720" as="targetPoint" />
          </mxGeometry>
        </mxCell>
        <mxCell id="V4bar3wsAy12n1TZm8ha-176" value="" style="endArrow=none;html=1;rounded=0;exitX=0.5;exitY=0;exitDx=0;exitDy=0;" parent="1" source="V4bar3wsAy12n1TZm8ha-170" edge="1">
          <mxGeometry width="50" height="50" relative="1" as="geometry">
            <mxPoint x="1909.5" y="770" as="sourcePoint" />
            <mxPoint x="1939.5" y="720" as="targetPoint" />
          </mxGeometry>
        </mxCell>
        <mxCell id="V4bar3wsAy12n1TZm8ha-177" value="" style="endArrow=none;html=1;rounded=0;exitX=0.5;exitY=0;exitDx=0;exitDy=0;" parent="1" source="V4bar3wsAy12n1TZm8ha-168" edge="1">
          <mxGeometry width="50" height="50" relative="1" as="geometry">
            <mxPoint x="1749.5" y="770" as="sourcePoint" />
            <mxPoint x="1779.5" y="720" as="targetPoint" />
          </mxGeometry>
        </mxCell>
        <mxCell id="V4bar3wsAy12n1TZm8ha-178" value="" style="endArrow=none;html=1;rounded=0;exitX=0.5;exitY=0;exitDx=0;exitDy=0;" parent="1" source="V4bar3wsAy12n1TZm8ha-167" edge="1">
          <mxGeometry width="50" height="50" relative="1" as="geometry">
            <mxPoint x="1579.5" y="770" as="sourcePoint" />
            <mxPoint x="1619.5" y="720" as="targetPoint" />
          </mxGeometry>
        </mxCell>
        <mxCell id="V4bar3wsAy12n1TZm8ha-179" value="" style="endArrow=none;html=1;rounded=0;exitX=0.5;exitY=0;exitDx=0;exitDy=0;" parent="1" source="V4bar3wsAy12n1TZm8ha-172" edge="1">
          <mxGeometry width="50" height="50" relative="1" as="geometry">
            <mxPoint x="1454" y="740" as="sourcePoint" />
            <mxPoint x="1459.5" y="720" as="targetPoint" />
          </mxGeometry>
        </mxCell>
        <mxCell id="V4bar3wsAy12n1TZm8ha-180" value="" style="shape=flexArrow;endArrow=classic;html=1;rounded=0;fillColor=#000000;" parent="1" edge="1">
          <mxGeometry width="50" height="50" relative="1" as="geometry">
            <mxPoint x="1860" y="720" as="sourcePoint" />
            <mxPoint x="1859.37" y="640" as="targetPoint" />
          </mxGeometry>
        </mxCell>
        <mxCell id="V4bar3wsAy12n1TZm8ha-181" value="" style="endArrow=none;html=1;rounded=0;fillColor=#000000;entryX=0.166;entryY=0;entryDx=0;entryDy=0;entryPerimeter=0;exitX=0.5;exitY=1;exitDx=0;exitDy=0;" parent="1" source="V4bar3wsAy12n1TZm8ha-182" edge="1">
          <mxGeometry width="50" height="50" relative="1" as="geometry">
            <mxPoint x="1809.5" y="580" as="sourcePoint" />
            <mxPoint x="1809.42" y="600" as="targetPoint" />
          </mxGeometry>
        </mxCell>
        <mxCell id="V4bar3wsAy12n1TZm8ha-182" value="" style="ellipse;whiteSpace=wrap;html=1;aspect=fixed;strokeWidth=1;fillColor=#000000;" parent="1" vertex="1">
          <mxGeometry x="1804.5" y="560" width="10" height="10" as="geometry" />
        </mxCell>
        <mxCell id="V4bar3wsAy12n1TZm8ha-183" value="Codice" style="text;html=1;align=center;verticalAlign=middle;resizable=0;points=[];autosize=1;strokeColor=none;fillColor=none;" parent="1" vertex="1">
          <mxGeometry x="1780.5" y="540" width="50" height="20" as="geometry" />
        </mxCell>
        <mxCell id="V4bar3wsAy12n1TZm8ha-186" value="Nome &lt;br&gt;latino" style="text;html=1;align=center;verticalAlign=middle;resizable=0;points=[];autosize=1;strokeColor=none;fillColor=none;" parent="1" vertex="1">
          <mxGeometry x="1874.5" y="680" width="50" height="30" as="geometry" />
        </mxCell>
        <mxCell id="V4bar3wsAy12n1TZm8ha-187" value="" style="endArrow=none;html=1;rounded=0;fillColor=#000000;entryX=0.166;entryY=0;entryDx=0;entryDy=0;entryPerimeter=0;exitX=0.5;exitY=1;exitDx=0;exitDy=0;" parent="1" source="V4bar3wsAy12n1TZm8ha-188" edge="1">
          <mxGeometry width="50" height="50" relative="1" as="geometry">
            <mxPoint x="1909.5" y="580" as="sourcePoint" />
            <mxPoint x="1909.42" y="600" as="targetPoint" />
          </mxGeometry>
        </mxCell>
        <mxCell id="V4bar3wsAy12n1TZm8ha-188" value="" style="ellipse;whiteSpace=wrap;html=1;aspect=fixed;strokeWidth=1;fillColor=none;" parent="1" vertex="1">
          <mxGeometry x="1904.5" y="560" width="10" height="10" as="geometry" />
        </mxCell>
        <mxCell id="V4bar3wsAy12n1TZm8ha-189" value="Nome &lt;br&gt;comune" style="text;html=1;align=center;verticalAlign=middle;resizable=0;points=[];autosize=1;strokeColor=none;fillColor=none;" parent="1" vertex="1">
          <mxGeometry x="1883.5" y="530" width="60" height="30" as="geometry" />
        </mxCell>
        <mxCell id="V4bar3wsAy12n1TZm8ha-190" value="" style="endArrow=none;html=1;rounded=0;fillColor=#000000;exitX=0;exitY=0.5;exitDx=0;exitDy=0;entryX=1;entryY=0.5;entryDx=0;entryDy=0;" parent="1" source="V4bar3wsAy12n1TZm8ha-172" target="V4bar3wsAy12n1TZm8ha-191" edge="1">
          <mxGeometry width="50" height="50" relative="1" as="geometry">
            <mxPoint x="1484.08" y="801" as="sourcePoint" />
            <mxPoint x="1374" y="780" as="targetPoint" />
            <Array as="points" />
          </mxGeometry>
        </mxCell>
        <mxCell id="V4bar3wsAy12n1TZm8ha-191" value="" style="ellipse;whiteSpace=wrap;html=1;aspect=fixed;strokeWidth=1;fillColor=none;" parent="1" vertex="1">
          <mxGeometry x="1364" y="775" width="10" height="10" as="geometry" />
        </mxCell>
        <mxCell id="V4bar3wsAy12n1TZm8ha-192" value="Colorazione (1,N)" style="text;html=1;align=center;verticalAlign=middle;resizable=0;points=[];autosize=1;strokeColor=none;fillColor=none;" parent="1" vertex="1">
          <mxGeometry x="1254" y="769" width="110" height="20" as="geometry" />
        </mxCell>
        <mxCell id="V4bar3wsAy12n1TZm8ha-193" value="Prezzo" style="rounded=0;whiteSpace=wrap;html=1;strokeWidth=1;perimeterSpacing=0;" parent="1" vertex="1">
          <mxGeometry x="1399.5" y="600" width="120" height="40" as="geometry" />
        </mxCell>
        <mxCell id="V4bar3wsAy12n1TZm8ha-194" value="valutazione" style="rhombus;whiteSpace=wrap;html=1;" parent="1" vertex="1">
          <mxGeometry x="1599.5" y="600" width="120" height="40" as="geometry" />
        </mxCell>
        <mxCell id="V4bar3wsAy12n1TZm8ha-195" value="" style="endArrow=none;html=1;rounded=0;entryX=0;entryY=0.5;entryDx=0;entryDy=0;exitX=1;exitY=0.5;exitDx=0;exitDy=0;" parent="1" source="V4bar3wsAy12n1TZm8ha-194" target="V4bar3wsAy12n1TZm8ha-169" edge="1">
          <mxGeometry width="50" height="50" relative="1" as="geometry">
            <mxPoint x="1689.5" y="720" as="sourcePoint" />
            <mxPoint x="1739.5" y="670" as="targetPoint" />
          </mxGeometry>
        </mxCell>
        <mxCell id="V4bar3wsAy12n1TZm8ha-196" value="" style="endArrow=none;html=1;rounded=0;entryX=1;entryY=0.5;entryDx=0;entryDy=0;exitX=0;exitY=0.5;exitDx=0;exitDy=0;" parent="1" source="V4bar3wsAy12n1TZm8ha-194" target="V4bar3wsAy12n1TZm8ha-193" edge="1">
          <mxGeometry width="50" height="50" relative="1" as="geometry">
            <mxPoint x="1689.5" y="720" as="sourcePoint" />
            <mxPoint x="1739.5" y="670" as="targetPoint" />
          </mxGeometry>
        </mxCell>
        <mxCell id="V4bar3wsAy12n1TZm8ha-197" value="" style="endArrow=none;html=1;rounded=0;fillColor=#000000;entryX=0.166;entryY=0;entryDx=0;entryDy=0;entryPerimeter=0;exitX=0.5;exitY=1;exitDx=0;exitDy=0;" parent="1" source="V4bar3wsAy12n1TZm8ha-198" edge="1">
          <mxGeometry width="50" height="50" relative="1" as="geometry">
            <mxPoint x="1419" y="580" as="sourcePoint" />
            <mxPoint x="1418.9199999999996" y="600" as="targetPoint" />
          </mxGeometry>
        </mxCell>
        <mxCell id="V4bar3wsAy12n1TZm8ha-198" value="" style="ellipse;whiteSpace=wrap;html=1;aspect=fixed;strokeWidth=1;fillColor=none;" parent="1" vertex="1">
          <mxGeometry x="1414" y="560" width="10" height="10" as="geometry" />
        </mxCell>
        <mxCell id="V4bar3wsAy12n1TZm8ha-199" value="" style="endArrow=none;html=1;rounded=0;fillColor=#000000;entryX=0.166;entryY=0;entryDx=0;entryDy=0;entryPerimeter=0;exitX=0.5;exitY=1;exitDx=0;exitDy=0;" parent="1" source="V4bar3wsAy12n1TZm8ha-200" edge="1">
          <mxGeometry width="50" height="50" relative="1" as="geometry">
            <mxPoint x="1499" y="580" as="sourcePoint" />
            <mxPoint x="1498.9199999999996" y="600" as="targetPoint" />
          </mxGeometry>
        </mxCell>
        <mxCell id="V4bar3wsAy12n1TZm8ha-200" value="" style="ellipse;whiteSpace=wrap;html=1;aspect=fixed;strokeWidth=1;fillColor=none;" parent="1" vertex="1">
          <mxGeometry x="1494" y="560" width="10" height="10" as="geometry" />
        </mxCell>
        <mxCell id="V4bar3wsAy12n1TZm8ha-201" value="Data inizio" style="text;html=1;align=center;verticalAlign=middle;resizable=0;points=[];autosize=1;strokeColor=none;fillColor=none;" parent="1" vertex="1">
          <mxGeometry x="1464" y="535" width="70" height="20" as="geometry" />
        </mxCell>
        <mxCell id="V4bar3wsAy12n1TZm8ha-202" value="Valore" style="text;html=1;align=center;verticalAlign=middle;resizable=0;points=[];autosize=1;strokeColor=none;fillColor=none;" parent="1" vertex="1">
          <mxGeometry x="1394" y="535" width="50" height="20" as="geometry" />
        </mxCell>
        <mxCell id="V4bar3wsAy12n1TZm8ha-203" value="" style="endArrow=none;html=1;rounded=0;" parent="1" edge="1">
          <mxGeometry width="50" height="50" relative="1" as="geometry">
            <mxPoint x="1489.5" y="580" as="sourcePoint" />
            <mxPoint x="1539.5" y="630" as="targetPoint" />
            <Array as="points">
              <mxPoint x="1539.5" y="580" />
            </Array>
          </mxGeometry>
        </mxCell>
        <mxCell id="V4bar3wsAy12n1TZm8ha-204" value="" style="ellipse;whiteSpace=wrap;html=1;aspect=fixed;strokeWidth=1;fillColor=#000000;" parent="1" vertex="1">
          <mxGeometry x="1534" y="630" width="10" height="10" as="geometry" />
        </mxCell>
        <mxCell id="V4bar3wsAy12n1TZm8ha-205" value="(1,N)" style="text;html=1;align=center;verticalAlign=middle;resizable=0;points=[];autosize=1;strokeColor=none;fillColor=none;" parent="1" vertex="1">
          <mxGeometry x="1759.5" y="600" width="40" height="20" as="geometry" />
        </mxCell>
        <mxCell id="V4bar3wsAy12n1TZm8ha-206" value="(1,1)" style="text;html=1;align=center;verticalAlign=middle;resizable=0;points=[];autosize=1;strokeColor=none;fillColor=none;" parent="1" vertex="1">
          <mxGeometry x="1539.5" y="600" width="40" height="20" as="geometry" />
        </mxCell>
        <mxCell id="V4bar3wsAy12n1TZm8ha-260" value="" style="ellipse;whiteSpace=wrap;html=1;aspect=fixed;strokeWidth=1;fillColor=none;" parent="1" vertex="1">
          <mxGeometry x="615" y="310" width="10" height="10" as="geometry" />
        </mxCell>
        <mxCell id="V4bar3wsAy12n1TZm8ha-261" value="Data" style="text;html=1;align=center;verticalAlign=middle;resizable=0;points=[];autosize=1;strokeColor=none;fillColor=none;" parent="1" vertex="1">
          <mxGeometry x="600" y="320" width="40" height="20" as="geometry" />
        </mxCell>
        <mxCell id="V4bar3wsAy12n1TZm8ha-262" value="" style="endArrow=none;html=1;rounded=0;exitX=0.5;exitY=0;exitDx=0;exitDy=0;entryX=0.5;entryY=1;entryDx=0;entryDy=0;" parent="1" source="V4bar3wsAy12n1TZm8ha-260" target="V4bar3wsAy12n1TZm8ha-83" edge="1">
          <mxGeometry width="50" height="50" relative="1" as="geometry">
            <mxPoint x="682" y="315.49" as="sourcePoint" />
            <mxPoint x="621.04" y="285.51000000000005" as="targetPoint" />
          </mxGeometry>
        </mxCell>
        <mxCell id="V4bar3wsAy12n1TZm8ha-263" value="(1,1)" style="text;html=1;align=center;verticalAlign=middle;resizable=0;points=[];autosize=1;strokeColor=none;fillColor=none;" parent="1" vertex="1">
          <mxGeometry x="760" y="240" width="40" height="20" as="geometry" />
        </mxCell>
        <mxCell id="V4bar3wsAy12n1TZm8ha-265" value="(1,N)" style="text;html=1;align=center;verticalAlign=middle;resizable=0;points=[];autosize=1;strokeColor=none;fillColor=none;" parent="1" vertex="1">
          <mxGeometry x="440" y="240" width="40" height="20" as="geometry" />
        </mxCell>
        <mxCell id="V4bar3wsAy12n1TZm8ha-266" value="(0,1)" style="text;html=1;align=center;verticalAlign=middle;resizable=0;points=[];autosize=1;strokeColor=none;fillColor=none;" parent="1" vertex="1">
          <mxGeometry x="816" y="639" width="40" height="20" as="geometry" />
        </mxCell>
        <mxCell id="V4bar3wsAy12n1TZm8ha-267" value="(1,N)" style="text;html=1;align=center;verticalAlign=middle;resizable=0;points=[];autosize=1;strokeColor=none;fillColor=none;" parent="1" vertex="1">
          <mxGeometry x="604" y="640" width="40" height="20" as="geometry" />
        </mxCell>
        <mxCell id="V4bar3wsAy12n1TZm8ha-269" value="Fornitore" style="rounded=0;whiteSpace=wrap;html=1;strokeWidth=1;perimeterSpacing=0;" parent="1" vertex="1">
          <mxGeometry x="1999.5" y="240.5" width="120" height="40" as="geometry" />
        </mxCell>
        <mxCell id="V4bar3wsAy12n1TZm8ha-270" value="" style="endArrow=none;html=1;rounded=0;fillColor=#000000;exitX=0.5;exitY=1;exitDx=0;exitDy=0;entryX=0.088;entryY=-0.003;entryDx=0;entryDy=0;entryPerimeter=0;" parent="1" source="V4bar3wsAy12n1TZm8ha-271" target="V4bar3wsAy12n1TZm8ha-269" edge="1">
          <mxGeometry width="50" height="50" relative="1" as="geometry">
            <mxPoint x="2009.58" y="220" as="sourcePoint" />
            <mxPoint x="2010" y="230" as="targetPoint" />
          </mxGeometry>
        </mxCell>
        <mxCell id="V4bar3wsAy12n1TZm8ha-271" value="" style="ellipse;whiteSpace=wrap;html=1;aspect=fixed;strokeWidth=1;fillColor=#000000;" parent="1" vertex="1">
          <mxGeometry x="2004.5" y="200" width="10" height="10" as="geometry" />
        </mxCell>
        <mxCell id="V4bar3wsAy12n1TZm8ha-272" value="Codice" style="text;html=1;align=center;verticalAlign=middle;resizable=0;points=[];autosize=1;strokeColor=none;fillColor=none;" parent="1" vertex="1">
          <mxGeometry x="1984.5" y="180" width="50" height="20" as="geometry" />
        </mxCell>
        <mxCell id="V4bar3wsAy12n1TZm8ha-273" value="" style="endArrow=none;html=1;rounded=0;fillColor=#000000;exitX=0.5;exitY=1;exitDx=0;exitDy=0;entryX=0.5;entryY=0;entryDx=0;entryDy=0;" parent="1" source="V4bar3wsAy12n1TZm8ha-274" target="V4bar3wsAy12n1TZm8ha-269" edge="1">
          <mxGeometry width="50" height="50" relative="1" as="geometry">
            <mxPoint x="2059.58" y="220" as="sourcePoint" />
            <mxPoint x="2060" y="230" as="targetPoint" />
          </mxGeometry>
        </mxCell>
        <mxCell id="V4bar3wsAy12n1TZm8ha-274" value="" style="ellipse;whiteSpace=wrap;html=1;aspect=fixed;strokeWidth=1;fillColor=none;" parent="1" vertex="1">
          <mxGeometry x="2054.5" y="200" width="10" height="10" as="geometry" />
        </mxCell>
        <mxCell id="V4bar3wsAy12n1TZm8ha-275" value="Nome" style="text;html=1;align=center;verticalAlign=middle;resizable=0;points=[];autosize=1;strokeColor=none;fillColor=none;" parent="1" vertex="1">
          <mxGeometry x="2034.5" y="180" width="50" height="20" as="geometry" />
        </mxCell>
        <mxCell id="V4bar3wsAy12n1TZm8ha-276" value="" style="endArrow=none;html=1;rounded=0;fillColor=#000000;exitX=0.5;exitY=1;exitDx=0;exitDy=0;" parent="1" source="V4bar3wsAy12n1TZm8ha-277" edge="1">
          <mxGeometry width="50" height="50" relative="1" as="geometry">
            <mxPoint x="2108.58" y="220" as="sourcePoint" />
            <mxPoint x="2110" y="240" as="targetPoint" />
          </mxGeometry>
        </mxCell>
        <mxCell id="V4bar3wsAy12n1TZm8ha-277" value="" style="ellipse;whiteSpace=wrap;html=1;aspect=fixed;strokeWidth=1;fillColor=none;" parent="1" vertex="1">
          <mxGeometry x="2104.5" y="200" width="10" height="10" as="geometry" />
        </mxCell>
        <mxCell id="V4bar3wsAy12n1TZm8ha-278" value="CF" style="text;html=1;align=center;verticalAlign=middle;resizable=0;points=[];autosize=1;strokeColor=none;fillColor=none;" parent="1" vertex="1">
          <mxGeometry x="2093.5" y="180" width="30" height="20" as="geometry" />
        </mxCell>
        <mxCell id="V4bar3wsAy12n1TZm8ha-279" value="Fornitura" style="rounded=0;whiteSpace=wrap;html=1;strokeWidth=1;perimeterSpacing=0;" parent="1" vertex="1">
          <mxGeometry x="2200" y="600" width="120" height="40" as="geometry" />
        </mxCell>
        <mxCell id="V4bar3wsAy12n1TZm8ha-280" value="fruizione" style="rhombus;whiteSpace=wrap;html=1;" parent="1" vertex="1">
          <mxGeometry x="2200" y="400" width="120" height="40" as="geometry" />
        </mxCell>
        <mxCell id="V4bar3wsAy12n1TZm8ha-283" value="composizione" style="rhombus;whiteSpace=wrap;html=1;" parent="1" vertex="1">
          <mxGeometry x="1999.5" y="600" width="120" height="40" as="geometry" />
        </mxCell>
        <mxCell id="V4bar3wsAy12n1TZm8ha-310" value="trattazione" style="rhombus;whiteSpace=wrap;html=1;" parent="1" vertex="1">
          <mxGeometry x="1999.5" y="400" width="120" height="40" as="geometry" />
        </mxCell>
        <mxCell id="V4bar3wsAy12n1TZm8ha-315" value="" style="ellipse;whiteSpace=wrap;html=1;aspect=fixed;strokeWidth=1;fillColor=none;" parent="1" vertex="1">
          <mxGeometry x="1894.5" y="670" width="10" height="10" as="geometry" />
        </mxCell>
        <mxCell id="V4bar3wsAy12n1TZm8ha-316" value="" style="endArrow=none;html=1;rounded=0;exitX=0.5;exitY=0;exitDx=0;exitDy=0;entryX=0.834;entryY=1.004;entryDx=0;entryDy=0;entryPerimeter=0;" parent="1" source="V4bar3wsAy12n1TZm8ha-315" target="V4bar3wsAy12n1TZm8ha-169" edge="1">
          <mxGeometry width="50" height="50" relative="1" as="geometry">
            <mxPoint x="1899.5" y="669.98" as="sourcePoint" />
            <mxPoint x="1900" y="650" as="targetPoint" />
          </mxGeometry>
        </mxCell>
        <mxCell id="V4bar3wsAy12n1TZm8ha-317" value="" style="endArrow=none;html=1;rounded=0;exitX=1;exitY=0.5;exitDx=0;exitDy=0;entryX=0;entryY=0.5;entryDx=0;entryDy=0;" parent="1" source="V4bar3wsAy12n1TZm8ha-169" target="V4bar3wsAy12n1TZm8ha-283" edge="1">
          <mxGeometry width="50" height="50" relative="1" as="geometry">
            <mxPoint x="2010" y="600" as="sourcePoint" />
            <mxPoint x="2060" y="550" as="targetPoint" />
          </mxGeometry>
        </mxCell>
        <mxCell id="V4bar3wsAy12n1TZm8ha-318" value="" style="endArrow=none;html=1;rounded=0;entryX=0;entryY=0.5;entryDx=0;entryDy=0;exitX=1;exitY=0.5;exitDx=0;exitDy=0;" parent="1" source="V4bar3wsAy12n1TZm8ha-283" target="V4bar3wsAy12n1TZm8ha-279" edge="1">
          <mxGeometry width="50" height="50" relative="1" as="geometry">
            <mxPoint x="2010" y="600" as="sourcePoint" />
            <mxPoint x="2060" y="550" as="targetPoint" />
          </mxGeometry>
        </mxCell>
        <mxCell id="V4bar3wsAy12n1TZm8ha-319" value="" style="endArrow=none;html=1;rounded=0;entryX=0.5;entryY=1;entryDx=0;entryDy=0;exitX=0.5;exitY=0;exitDx=0;exitDy=0;" parent="1" source="V4bar3wsAy12n1TZm8ha-279" target="V4bar3wsAy12n1TZm8ha-280" edge="1">
          <mxGeometry width="50" height="50" relative="1" as="geometry">
            <mxPoint x="2210" y="560" as="sourcePoint" />
            <mxPoint x="2260" y="510" as="targetPoint" />
          </mxGeometry>
        </mxCell>
        <mxCell id="V4bar3wsAy12n1TZm8ha-320" value="" style="endArrow=none;html=1;rounded=0;exitX=1;exitY=0.5;exitDx=0;exitDy=0;entryX=0.5;entryY=0;entryDx=0;entryDy=0;" parent="1" source="V4bar3wsAy12n1TZm8ha-269" target="V4bar3wsAy12n1TZm8ha-280" edge="1">
          <mxGeometry width="50" height="50" relative="1" as="geometry">
            <mxPoint x="2200" y="320" as="sourcePoint" />
            <mxPoint x="2250" y="270" as="targetPoint" />
            <Array as="points">
              <mxPoint x="2260" y="260" />
            </Array>
          </mxGeometry>
        </mxCell>
        <mxCell id="V4bar3wsAy12n1TZm8ha-323" value="" style="endArrow=none;html=1;rounded=0;entryX=0.5;entryY=1;entryDx=0;entryDy=0;exitX=0.5;exitY=0;exitDx=0;exitDy=0;" parent="1" source="V4bar3wsAy12n1TZm8ha-310" target="V4bar3wsAy12n1TZm8ha-269" edge="1">
          <mxGeometry width="50" height="50" relative="1" as="geometry">
            <mxPoint x="1990" y="390" as="sourcePoint" />
            <mxPoint x="2040" y="340" as="targetPoint" />
          </mxGeometry>
        </mxCell>
        <mxCell id="V4bar3wsAy12n1TZm8ha-324" value="" style="endArrow=none;html=1;rounded=0;entryX=0;entryY=0.5;entryDx=0;entryDy=0;exitX=0.75;exitY=0;exitDx=0;exitDy=0;" parent="1" source="V4bar3wsAy12n1TZm8ha-169" target="V4bar3wsAy12n1TZm8ha-310" edge="1">
          <mxGeometry width="50" height="50" relative="1" as="geometry">
            <mxPoint x="1990" y="510" as="sourcePoint" />
            <mxPoint x="2040" y="460" as="targetPoint" />
            <Array as="points">
              <mxPoint x="1890" y="420" />
            </Array>
          </mxGeometry>
        </mxCell>
        <mxCell id="V4bar3wsAy12n1TZm8ha-325" value="Indirizzo" style="ellipse;whiteSpace=wrap;html=1;" parent="1" vertex="1">
          <mxGeometry x="1879.5" y="240" width="80" height="40" as="geometry" />
        </mxCell>
        <mxCell id="V4bar3wsAy12n1TZm8ha-326" value="" style="ellipse;whiteSpace=wrap;html=1;aspect=fixed;strokeWidth=1;fillColor=none;" parent="1" vertex="1">
          <mxGeometry x="1849.5" y="230" width="10" height="10" as="geometry" />
        </mxCell>
        <mxCell id="V4bar3wsAy12n1TZm8ha-327" value="" style="ellipse;whiteSpace=wrap;html=1;aspect=fixed;strokeWidth=1;fillColor=none;" parent="1" vertex="1">
          <mxGeometry x="1849.5" y="250" width="10" height="10" as="geometry" />
        </mxCell>
        <mxCell id="V4bar3wsAy12n1TZm8ha-328" value="" style="ellipse;whiteSpace=wrap;html=1;aspect=fixed;strokeWidth=1;fillColor=none;" parent="1" vertex="1">
          <mxGeometry x="1849.5" y="290" width="10" height="10" as="geometry" />
        </mxCell>
        <mxCell id="V4bar3wsAy12n1TZm8ha-329" value="" style="endArrow=none;html=1;rounded=0;entryX=1;entryY=0.5;entryDx=0;entryDy=0;exitX=0;exitY=0.5;exitDx=0;exitDy=0;" parent="1" source="V4bar3wsAy12n1TZm8ha-325" target="V4bar3wsAy12n1TZm8ha-326" edge="1">
          <mxGeometry width="50" height="50" relative="1" as="geometry">
            <mxPoint x="1879.5" y="250" as="sourcePoint" />
            <mxPoint x="1900.499999999998" y="237" as="targetPoint" />
          </mxGeometry>
        </mxCell>
        <mxCell id="V4bar3wsAy12n1TZm8ha-330" value="" style="endArrow=none;html=1;rounded=0;entryX=1;entryY=0.5;entryDx=0;entryDy=0;exitX=0;exitY=0.5;exitDx=0;exitDy=0;" parent="1" source="V4bar3wsAy12n1TZm8ha-325" target="V4bar3wsAy12n1TZm8ha-327" edge="1">
          <mxGeometry width="50" height="50" relative="1" as="geometry">
            <mxPoint x="1879.5" y="250" as="sourcePoint" />
            <mxPoint x="1900.499999999998" y="247" as="targetPoint" />
          </mxGeometry>
        </mxCell>
        <mxCell id="V4bar3wsAy12n1TZm8ha-331" value="" style="endArrow=none;html=1;rounded=0;entryX=1;entryY=0.5;entryDx=0;entryDy=0;exitX=0;exitY=0.5;exitDx=0;exitDy=0;" parent="1" source="V4bar3wsAy12n1TZm8ha-325" target="V4bar3wsAy12n1TZm8ha-328" edge="1">
          <mxGeometry width="50" height="50" relative="1" as="geometry">
            <mxPoint x="1869.5" y="260" as="sourcePoint" />
            <mxPoint x="1870.4999999999998" y="287" as="targetPoint" />
          </mxGeometry>
        </mxCell>
        <mxCell id="V4bar3wsAy12n1TZm8ha-332" value="Via" style="text;html=1;align=center;verticalAlign=middle;resizable=0;points=[];autosize=1;strokeColor=none;fillColor=none;" parent="1" vertex="1">
          <mxGeometry x="1819.5" y="225" width="30" height="20" as="geometry" />
        </mxCell>
        <mxCell id="V4bar3wsAy12n1TZm8ha-333" value="Numero civico" style="text;html=1;align=center;verticalAlign=middle;resizable=0;points=[];autosize=1;strokeColor=none;fillColor=none;" parent="1" vertex="1">
          <mxGeometry x="1760.5" y="245" width="90" height="20" as="geometry" />
        </mxCell>
        <mxCell id="V4bar3wsAy12n1TZm8ha-334" value="CittÃ " style="text;html=1;align=center;verticalAlign=middle;resizable=0;points=[];autosize=1;strokeColor=none;fillColor=none;" parent="1" vertex="1">
          <mxGeometry x="1809.5" y="265" width="40" height="20" as="geometry" />
        </mxCell>
        <mxCell id="V4bar3wsAy12n1TZm8ha-335" value="" style="ellipse;whiteSpace=wrap;html=1;aspect=fixed;strokeWidth=1;fillColor=none;" parent="1" vertex="1">
          <mxGeometry x="1849.5" y="270" width="10" height="10" as="geometry" />
        </mxCell>
        <mxCell id="V4bar3wsAy12n1TZm8ha-336" value="" style="endArrow=none;html=1;rounded=0;entryX=1;entryY=0.5;entryDx=0;entryDy=0;exitX=0;exitY=0.5;exitDx=0;exitDy=0;" parent="1" source="V4bar3wsAy12n1TZm8ha-325" target="V4bar3wsAy12n1TZm8ha-335" edge="1">
          <mxGeometry width="50" height="50" relative="1" as="geometry">
            <mxPoint x="1869.5" y="260" as="sourcePoint" />
            <mxPoint x="1900.499999999998" y="267" as="targetPoint" />
          </mxGeometry>
        </mxCell>
        <mxCell id="V4bar3wsAy12n1TZm8ha-337" value="Nazione" style="text;html=1;align=center;verticalAlign=middle;resizable=0;points=[];autosize=1;strokeColor=none;fillColor=none;" parent="1" vertex="1">
          <mxGeometry x="1790.5" y="285" width="60" height="20" as="geometry" />
        </mxCell>
        <mxCell id="V4bar3wsAy12n1TZm8ha-338" value="" style="endArrow=none;html=1;rounded=0;entryX=0;entryY=0.5;entryDx=0;entryDy=0;exitX=1;exitY=0.5;exitDx=0;exitDy=0;" parent="1" source="V4bar3wsAy12n1TZm8ha-325" target="V4bar3wsAy12n1TZm8ha-269" edge="1">
          <mxGeometry width="50" height="50" relative="1" as="geometry">
            <mxPoint x="1940" y="310" as="sourcePoint" />
            <mxPoint x="1990" y="260" as="targetPoint" />
          </mxGeometry>
        </mxCell>
        <mxCell id="V4bar3wsAy12n1TZm8ha-339" value="(1,N)" style="text;html=1;align=center;verticalAlign=middle;resizable=0;points=[];autosize=1;strokeColor=none;fillColor=none;" parent="1" vertex="1">
          <mxGeometry x="2060" y="287" width="40" height="20" as="geometry" />
        </mxCell>
        <mxCell id="V4bar3wsAy12n1TZm8ha-340" value="(1,N)" style="text;html=1;align=center;verticalAlign=middle;resizable=0;points=[];autosize=1;strokeColor=none;fillColor=none;" parent="1" vertex="1">
          <mxGeometry x="1955" y="400" width="40" height="20" as="geometry" />
        </mxCell>
        <mxCell id="V4bar3wsAy12n1TZm8ha-341" value="(1,N)" style="text;html=1;align=center;verticalAlign=middle;resizable=0;points=[];autosize=1;strokeColor=none;fillColor=none;" parent="1" vertex="1">
          <mxGeometry x="2123.5" y="237" width="40" height="20" as="geometry" />
        </mxCell>
        <mxCell id="V4bar3wsAy12n1TZm8ha-342" value="(1,1)" style="text;html=1;align=center;verticalAlign=middle;resizable=0;points=[];autosize=1;strokeColor=none;fillColor=none;" parent="1" vertex="1">
          <mxGeometry x="2260" y="573" width="40" height="20" as="geometry" />
        </mxCell>
        <mxCell id="V4bar3wsAy12n1TZm8ha-343" value="(1,N)" style="text;html=1;align=center;verticalAlign=middle;resizable=0;points=[];autosize=1;strokeColor=none;fillColor=none;" parent="1" vertex="1">
          <mxGeometry x="2156" y="599" width="40" height="20" as="geometry" />
        </mxCell>
        <mxCell id="V4bar3wsAy12n1TZm8ha-344" value="(0,N)" style="text;html=1;align=center;verticalAlign=middle;resizable=0;points=[];autosize=1;strokeColor=none;fillColor=none;" parent="1" vertex="1">
          <mxGeometry x="1923" y="599" width="40" height="20" as="geometry" />
        </mxCell>
        <mxCell id="V4bar3wsAy12n1TZm8ha-346" value="" style="ellipse;whiteSpace=wrap;html=1;aspect=fixed;strokeWidth=1;fillColor=none;" parent="1" vertex="1">
          <mxGeometry x="2170" y="441" width="10" height="10" as="geometry" />
        </mxCell>
        <mxCell id="V4bar3wsAy12n1TZm8ha-347" value="" style="endArrow=none;html=1;rounded=0;entryX=0;entryY=0.5;entryDx=0;entryDy=0;exitX=0.5;exitY=0;exitDx=0;exitDy=0;" parent="1" source="V4bar3wsAy12n1TZm8ha-346" target="V4bar3wsAy12n1TZm8ha-280" edge="1">
          <mxGeometry width="50" height="50" relative="1" as="geometry">
            <mxPoint x="2120" y="450" as="sourcePoint" />
            <mxPoint x="2170" y="400" as="targetPoint" />
          </mxGeometry>
        </mxCell>
        <mxCell id="V4bar3wsAy12n1TZm8ha-348" value="Data" style="text;html=1;align=center;verticalAlign=middle;resizable=0;points=[];autosize=1;strokeColor=none;fillColor=none;" parent="1" vertex="1">
          <mxGeometry x="2155" y="455" width="40" height="20" as="geometry" />
        </mxCell>
        <mxCell id="V4bar3wsAy12n1TZm8ha-349" value="" style="ellipse;whiteSpace=wrap;html=1;aspect=fixed;strokeWidth=1;fillColor=none;" parent="1" vertex="1">
          <mxGeometry x="2054.5" y="560" width="10" height="10" as="geometry" />
        </mxCell>
        <mxCell id="V4bar3wsAy12n1TZm8ha-350" value="" style="endArrow=none;html=1;rounded=0;exitX=0.5;exitY=0;exitDx=0;exitDy=0;entryX=0.5;entryY=1;entryDx=0;entryDy=0;" parent="1" source="V4bar3wsAy12n1TZm8ha-283" target="V4bar3wsAy12n1TZm8ha-349" edge="1">
          <mxGeometry width="50" height="50" relative="1" as="geometry">
            <mxPoint x="2040" y="580" as="sourcePoint" />
            <mxPoint x="2090" y="530" as="targetPoint" />
          </mxGeometry>
        </mxCell>
        <mxCell id="V4bar3wsAy12n1TZm8ha-351" value="QuantitÃ " style="text;html=1;align=center;verticalAlign=middle;resizable=0;points=[];autosize=1;strokeColor=none;fillColor=none;" parent="1" vertex="1">
          <mxGeometry x="2029.5" y="540" width="60" height="20" as="geometry" />
        </mxCell>
        <mxCell id="V4bar3wsAy12n1TZm8ha-352" value="" style="ellipse;whiteSpace=wrap;html=1;aspect=fixed;strokeWidth=1;fillColor=#000000;" parent="1" vertex="1">
          <mxGeometry x="2255" y="670" width="10" height="10" as="geometry" />
        </mxCell>
        <mxCell id="V4bar3wsAy12n1TZm8ha-353" value="" style="endArrow=none;html=1;rounded=0;entryX=0.5;entryY=1;entryDx=0;entryDy=0;exitX=0.5;exitY=0;exitDx=0;exitDy=0;" parent="1" source="V4bar3wsAy12n1TZm8ha-352" target="V4bar3wsAy12n1TZm8ha-279" edge="1">
          <mxGeometry width="50" height="50" relative="1" as="geometry">
            <mxPoint x="2160" y="680" as="sourcePoint" />
            <mxPoint x="2210" y="630" as="targetPoint" />
          </mxGeometry>
        </mxCell>
        <mxCell id="V4bar3wsAy12n1TZm8ha-354" value="Codice" style="text;html=1;align=center;verticalAlign=middle;resizable=0;points=[];autosize=1;strokeColor=none;fillColor=none;" parent="1" vertex="1">
          <mxGeometry x="2235" y="679" width="50" height="20" as="geometry" />
        </mxCell>
        <mxCell id="D6odM5lhYbgwMnqIU5Fz-1" value="stoccaggio" style="rhombus;whiteSpace=wrap;html=1;" parent="1" vertex="1">
          <mxGeometry x="1600" y="360" width="120" height="40" as="geometry" />
        </mxCell>
        <mxCell id="D6odM5lhYbgwMnqIU5Fz-2" value="Giacenza" style="rounded=0;whiteSpace=wrap;html=1;strokeWidth=1;perimeterSpacing=0;" parent="1" vertex="1">
          <mxGeometry x="1600.5" y="240" width="120" height="41" as="geometry" />
        </mxCell>
        <mxCell id="D6odM5lhYbgwMnqIU5Fz-3" value="" style="endArrow=none;html=1;rounded=0;fillColor=#000000;exitX=0.5;exitY=1;exitDx=0;exitDy=0;entryX=0.168;entryY=-0.011;entryDx=0;entryDy=0;entryPerimeter=0;" parent="1" source="D6odM5lhYbgwMnqIU5Fz-4" target="D6odM5lhYbgwMnqIU5Fz-2" edge="1">
          <mxGeometry width="50" height="50" relative="1" as="geometry">
            <mxPoint x="1620.5" y="221" as="sourcePoint" />
            <mxPoint x="1620.5" y="231" as="targetPoint" />
          </mxGeometry>
        </mxCell>
        <mxCell id="D6odM5lhYbgwMnqIU5Fz-4" value="" style="ellipse;whiteSpace=wrap;html=1;aspect=fixed;strokeWidth=1;fillColor=#000000;" parent="1" vertex="1">
          <mxGeometry x="1615.5" y="201" width="10" height="10" as="geometry" />
        </mxCell>
        <mxCell id="D6odM5lhYbgwMnqIU5Fz-5" value="Codice" style="text;html=1;align=center;verticalAlign=middle;resizable=0;points=[];autosize=1;strokeColor=none;fillColor=none;" parent="1" vertex="1">
          <mxGeometry x="1595.5" y="181" width="50" height="20" as="geometry" />
        </mxCell>
        <mxCell id="D6odM5lhYbgwMnqIU5Fz-6" value="" style="endArrow=none;html=1;rounded=0;fillColor=#000000;exitX=0.5;exitY=1;exitDx=0;exitDy=0;entryX=0.842;entryY=-0.009;entryDx=0;entryDy=0;entryPerimeter=0;" parent="1" source="D6odM5lhYbgwMnqIU5Fz-7" target="D6odM5lhYbgwMnqIU5Fz-2" edge="1">
          <mxGeometry width="50" height="50" relative="1" as="geometry">
            <mxPoint x="1701.5" y="221.45" as="sourcePoint" />
            <mxPoint x="1701.5" y="231" as="targetPoint" />
          </mxGeometry>
        </mxCell>
        <mxCell id="D6odM5lhYbgwMnqIU5Fz-7" value="" style="ellipse;whiteSpace=wrap;html=1;aspect=fixed;strokeWidth=1;fillColor=none;" parent="1" vertex="1">
          <mxGeometry x="1696.5" y="201.45" width="10" height="10" as="geometry" />
        </mxCell>
        <mxCell id="D6odM5lhYbgwMnqIU5Fz-8" value="QuantitÃ " style="text;html=1;align=center;verticalAlign=middle;resizable=0;points=[];autosize=1;strokeColor=none;fillColor=none;" parent="1" vertex="1">
          <mxGeometry x="1671.5" y="181.45" width="60" height="20" as="geometry" />
        </mxCell>
        <mxCell id="D6odM5lhYbgwMnqIU5Fz-9" value="" style="endArrow=none;html=1;rounded=0;entryX=0.5;entryY=1;entryDx=0;entryDy=0;exitX=0.5;exitY=0;exitDx=0;exitDy=0;" parent="1" source="D6odM5lhYbgwMnqIU5Fz-1" target="D6odM5lhYbgwMnqIU5Fz-2" edge="1">
          <mxGeometry width="50" height="50" relative="1" as="geometry">
            <mxPoint x="1560" y="310" as="sourcePoint" />
            <mxPoint x="1610" y="260" as="targetPoint" />
          </mxGeometry>
        </mxCell>
        <mxCell id="D6odM5lhYbgwMnqIU5Fz-10" value="" style="endArrow=none;html=1;rounded=0;entryX=0.589;entryY=0.008;entryDx=0;entryDy=0;exitX=1;exitY=0.5;exitDx=0;exitDy=0;entryPerimeter=0;" parent="1" source="D6odM5lhYbgwMnqIU5Fz-1" target="V4bar3wsAy12n1TZm8ha-169" edge="1">
          <mxGeometry width="50" height="50" relative="1" as="geometry">
            <mxPoint x="1740" y="520" as="sourcePoint" />
            <mxPoint x="1790" y="470" as="targetPoint" />
            <Array as="points">
              <mxPoint x="1870" y="380" />
            </Array>
          </mxGeometry>
        </mxCell>
        <mxCell id="D6odM5lhYbgwMnqIU5Fz-11" value="(0,1)" style="text;html=1;align=center;verticalAlign=middle;resizable=0;points=[];autosize=1;strokeColor=none;fillColor=none;" parent="1" vertex="1">
          <mxGeometry x="1720" y="360" width="40" height="20" as="geometry" />
        </mxCell>
        <mxCell id="D6odM5lhYbgwMnqIU5Fz-12" value="(1,1)" style="text;html=1;align=center;verticalAlign=middle;resizable=0;points=[];autosize=1;strokeColor=none;fillColor=none;" parent="1" vertex="1">
          <mxGeometry x="1658" y="283" width="40" height="20" as="geometry" />
        </mxCell>
        <mxCell id="D6odM5lhYbgwMnqIU5Fz-22" value="" style="ellipse;whiteSpace=wrap;html=1;aspect=fixed;strokeWidth=1;fillColor=none;" parent="1" vertex="1">
          <mxGeometry x="1414" y="670" width="10" height="10" as="geometry" />
        </mxCell>
        <mxCell id="D6odM5lhYbgwMnqIU5Fz-23" value="" style="endArrow=none;html=1;rounded=0;exitX=0.5;exitY=0;exitDx=0;exitDy=0;entryX=0.162;entryY=1.011;entryDx=0;entryDy=0;entryPerimeter=0;" parent="1" source="D6odM5lhYbgwMnqIU5Fz-22" target="V4bar3wsAy12n1TZm8ha-193" edge="1">
          <mxGeometry width="50" height="50" relative="1" as="geometry">
            <mxPoint x="1480" y="640" as="sourcePoint" />
            <mxPoint x="1530" y="590" as="targetPoint" />
          </mxGeometry>
        </mxCell>
        <mxCell id="D6odM5lhYbgwMnqIU5Fz-24" value="Data fine" style="text;html=1;align=center;verticalAlign=middle;resizable=0;points=[];autosize=1;strokeColor=none;fillColor=none;" parent="1" vertex="1">
          <mxGeometry x="1390" y="680" width="60" height="20" as="geometry" />
        </mxCell>
        <mxCell id="D6odM5lhYbgwMnqIU5Fz-25" value="Contatto" style="ellipse;whiteSpace=wrap;html=1;" parent="1" vertex="1">
          <mxGeometry x="390" y="174" width="70" height="26.5" as="geometry" />
        </mxCell>
        <mxCell id="D6odM5lhYbgwMnqIU5Fz-26" value="(1,N)" style="text;html=1;align=center;verticalAlign=middle;resizable=0;points=[];autosize=1;strokeColor=none;fillColor=none;" parent="1" vertex="1">
          <mxGeometry x="420" y="201.45" width="40" height="20" as="geometry" />
        </mxCell>
        <mxCell id="D6odM5lhYbgwMnqIU5Fz-27" value="(0,1)" style="text;html=1;align=center;verticalAlign=middle;resizable=0;points=[];autosize=1;strokeColor=none;fillColor=none;" parent="1" vertex="1">
          <mxGeometry x="426" y="285" width="40" height="20" as="geometry" />
        </mxCell>
        <mxCell id="D6odM5lhYbgwMnqIU5Fz-28" value="" style="ellipse;whiteSpace=wrap;html=1;aspect=fixed;strokeWidth=1;fillColor=none;" parent="1" vertex="1">
          <mxGeometry x="490" y="170" width="10" height="10" as="geometry" />
        </mxCell>
        <mxCell id="D6odM5lhYbgwMnqIU5Fz-29" value="" style="ellipse;whiteSpace=wrap;html=1;aspect=fixed;strokeWidth=1;fillColor=none;" parent="1" vertex="1">
          <mxGeometry x="490" y="190" width="10" height="10" as="geometry" />
        </mxCell>
        <mxCell id="D6odM5lhYbgwMnqIU5Fz-30" value="" style="endArrow=none;html=1;rounded=0;entryX=0;entryY=0.5;entryDx=0;entryDy=0;exitX=1;exitY=0.5;exitDx=0;exitDy=0;" parent="1" source="D6odM5lhYbgwMnqIU5Fz-25" target="D6odM5lhYbgwMnqIU5Fz-28" edge="1">
          <mxGeometry width="50" height="50" relative="1" as="geometry">
            <mxPoint x="410" y="240" as="sourcePoint" />
            <mxPoint x="460" y="190" as="targetPoint" />
          </mxGeometry>
        </mxCell>
        <mxCell id="D6odM5lhYbgwMnqIU5Fz-31" value="" style="endArrow=none;html=1;rounded=0;entryX=0;entryY=0.5;entryDx=0;entryDy=0;exitX=1;exitY=0.5;exitDx=0;exitDy=0;" parent="1" source="D6odM5lhYbgwMnqIU5Fz-25" target="D6odM5lhYbgwMnqIU5Fz-29" edge="1">
          <mxGeometry width="50" height="50" relative="1" as="geometry">
            <mxPoint x="420" y="230" as="sourcePoint" />
            <mxPoint x="470" y="180" as="targetPoint" />
          </mxGeometry>
        </mxCell>
        <mxCell id="D6odM5lhYbgwMnqIU5Fz-32" value="Recapito" style="text;html=1;align=center;verticalAlign=middle;resizable=0;points=[];autosize=1;strokeColor=none;fillColor=none;" parent="1" vertex="1">
          <mxGeometry x="500" y="164" width="60" height="20" as="geometry" />
        </mxCell>
        <mxCell id="D6odM5lhYbgwMnqIU5Fz-33" value="Mezzo di com." style="text;html=1;align=center;verticalAlign=middle;resizable=0;points=[];autosize=1;strokeColor=none;fillColor=none;" parent="1" vertex="1">
          <mxGeometry x="501" y="184" width="90" height="20" as="geometry" />
        </mxCell>
        <mxCell id="D6odM5lhYbgwMnqIU5Fz-34" value="Contatto" style="ellipse;whiteSpace=wrap;html=1;" parent="1" vertex="1">
          <mxGeometry x="570" y="704" width="70" height="26.5" as="geometry" />
        </mxCell>
        <mxCell id="D6odM5lhYbgwMnqIU5Fz-35" value="(1,N)" style="text;html=1;align=center;verticalAlign=middle;resizable=0;points=[];autosize=1;strokeColor=none;fillColor=none;" parent="1" vertex="1">
          <mxGeometry x="565" y="681" width="40" height="20" as="geometry" />
        </mxCell>
        <mxCell id="D6odM5lhYbgwMnqIU5Fz-36" value="" style="ellipse;whiteSpace=wrap;html=1;aspect=fixed;strokeWidth=1;fillColor=none;" parent="1" vertex="1">
          <mxGeometry x="670" y="700" width="10" height="10" as="geometry" />
        </mxCell>
        <mxCell id="D6odM5lhYbgwMnqIU5Fz-37" value="" style="ellipse;whiteSpace=wrap;html=1;aspect=fixed;strokeWidth=1;fillColor=none;" parent="1" vertex="1">
          <mxGeometry x="670" y="720" width="10" height="10" as="geometry" />
        </mxCell>
        <mxCell id="D6odM5lhYbgwMnqIU5Fz-38" value="" style="endArrow=none;html=1;rounded=0;entryX=0;entryY=0.5;entryDx=0;entryDy=0;exitX=1;exitY=0.5;exitDx=0;exitDy=0;" parent="1" source="D6odM5lhYbgwMnqIU5Fz-34" target="D6odM5lhYbgwMnqIU5Fz-36" edge="1">
          <mxGeometry width="50" height="50" relative="1" as="geometry">
            <mxPoint x="590" y="770" as="sourcePoint" />
            <mxPoint x="640" y="720" as="targetPoint" />
          </mxGeometry>
        </mxCell>
        <mxCell id="D6odM5lhYbgwMnqIU5Fz-39" value="" style="endArrow=none;html=1;rounded=0;entryX=0;entryY=0.5;entryDx=0;entryDy=0;exitX=1;exitY=0.5;exitDx=0;exitDy=0;" parent="1" source="D6odM5lhYbgwMnqIU5Fz-34" target="D6odM5lhYbgwMnqIU5Fz-37" edge="1">
          <mxGeometry width="50" height="50" relative="1" as="geometry">
            <mxPoint x="600" y="760" as="sourcePoint" />
            <mxPoint x="650" y="710" as="targetPoint" />
          </mxGeometry>
        </mxCell>
        <mxCell id="D6odM5lhYbgwMnqIU5Fz-40" value="Recapito" style="text;html=1;align=center;verticalAlign=middle;resizable=0;points=[];autosize=1;strokeColor=none;fillColor=none;" parent="1" vertex="1">
          <mxGeometry x="680" y="694" width="60" height="20" as="geometry" />
        </mxCell>
        <mxCell id="D6odM5lhYbgwMnqIU5Fz-41" value="Mezzo di com." style="text;html=1;align=center;verticalAlign=middle;resizable=0;points=[];autosize=1;strokeColor=none;fillColor=none;" parent="1" vertex="1">
          <mxGeometry x="680" y="715" width="90" height="20" as="geometry" />
        </mxCell>
        <mxCell id="D6odM5lhYbgwMnqIU5Fz-42" value="(0,1)" style="text;html=1;align=center;verticalAlign=middle;resizable=0;points=[];autosize=1;strokeColor=none;fillColor=none;" parent="1" vertex="1">
          <mxGeometry x="486" y="681" width="40" height="20" as="geometry" />
        </mxCell>
        <mxCell id="D6odM5lhYbgwMnqIU5Fz-43" value="" style="ellipse;whiteSpace=wrap;html=1;aspect=fixed;strokeWidth=1;fillColor=none;" parent="1" vertex="1">
          <mxGeometry x="485" y="710" width="10" height="10" as="geometry" />
        </mxCell>
        <mxCell id="D6odM5lhYbgwMnqIU5Fz-45" value="" style="endArrow=none;html=1;rounded=0;exitX=0;exitY=0.5;exitDx=0;exitDy=0;entryX=0.75;entryY=1;entryDx=0;entryDy=0;" parent="1" source="D6odM5lhYbgwMnqIU5Fz-34" target="V4bar3wsAy12n1TZm8ha-60" edge="1">
          <mxGeometry width="50" height="50" relative="1" as="geometry">
            <mxPoint x="600" y="740" as="sourcePoint" />
            <mxPoint x="650" y="690" as="targetPoint" />
          </mxGeometry>
        </mxCell>
      </root>
    </mxGraphModel>
  </diagram>
</mxfile>
